<?xml version="1.0" encoding="UTF-8"?>
<svg id="Laag_1" data-name="Laag 1" xmlns="http://www.w3.org/2000/svg" viewBox="0 0 87.66 91.27">
  <defs>
    <style>
      .cls-1 {
        fill: none;
        stroke: #2d3e2b;
        stroke-miterlimit: 10;
      }
    </style>
  </defs>
  <g>
    <path class="cls-1" d="m41.86,39.92S31.11,21.35,60.82.63c.46-.32,1.1-.02,1.14.55.44,6.61,1.28,36.96-20.1,38.74Z"/>
    <path class="cls-1" d="m41.86,39.92S31.11,21.35,60.82.63c.46-.32,1.1-.02,1.14.55.44,6.61,1.28,36.96-20.1,38.74Z"/>
    <path class="cls-1" d="m42.42,39.92s-15.12-4.13-11.62-29.78c.05-.4.53-.56.85-.29,3.73,3.18,20.27,18.37,10.77,30.08Z"/>
  </g>
  <g>
    <path class="cls-1" d="m48.06,45.06s18.74-10.45,38.98,19.58c.32.47,0,1.1-.57,1.13-6.61.33-36.97.69-38.41-20.72Z"/>
    <path class="cls-1" d="m48.06,45.06s18.74-10.45,38.98,19.58c.32.47,0,1.1-.57,1.13-6.61.33-36.97.69-38.41-20.72Z"/>
    <path class="cls-1" d="m48.05,45.62s4.37-15.05,29.96-11.15c.4.06.56.54.28.85-3.24,3.67-18.69,19.97-30.24,10.29Z"/>
  </g>
  <g>
    <path class="cls-1" d="m39.5,49.93s12.2,17.66-15.77,40.67c-.44.36-1.1.1-1.18-.45-.96-6.55-4.22-36.74,16.95-40.22Z"/>
    <path class="cls-1" d="m39.5,49.93s12.2,17.66-15.77,40.67c-.44.36-1.1.1-1.18-.45-.96-6.55-4.22-36.74,16.95-40.22Z"/>
    <path class="cls-1" d="m38.94,49.98s15.4,2.91,13.96,28.76c-.02.4-.48.61-.82.36-3.97-2.87-21.67-16.7-13.13-29.12Z"/>
  </g>
  <g>
    <path class="cls-1" d="m32.47,48.73S11.17,51.3,3.82,15.83c-.11-.55.42-1.02.95-.83,6.24,2.2,34.47,13.38,27.69,33.73Z"/>
    <path class="cls-1" d="m32.47,48.73S11.17,51.3,3.82,15.83c-.11-.55.42-1.02.95-.83,6.24,2.2,34.47,13.38,27.69,33.73Z"/>
    <path class="cls-1" d="m32.69,48.21s-9.75,12.27-31.95-1.04c-.35-.21-.31-.71.06-.9,4.39-2.17,24.87-11.4,31.89,1.94Z"/>
  </g>
</svg>