<?xml version="1.0" encoding="UTF-8"?>
<svg id="Laag_1" data-name="Laag 1" xmlns="http://www.w3.org/2000/svg" viewBox="0 0 50 50">
  <defs>
    <style>
      .cls-1 {
        fill: #fef1e0;
      }

      .cls-1, .cls-2, .cls-3, .cls-4, .cls-5, .cls-6 {
        stroke-width: 0px;
      }

      .cls-2 {
        fill: #b66d4a;
      }

      .cls-3 {
        fill: #628469;
      }

      .cls-4 {
        fill: #e0b1a9;
      }

      .cls-5 {
        fill: #0c3721;
      }

      .cls-6 {
        fill: #895b3b;
      }
    </style>
  </defs>
  <rect class="cls-1" width="50" height="50"/>
  <rect class="cls-4" x="4" y="4" width="42" height="42" rx="7.5" ry="7.5"/>
  <g>
    <path class="cls-6" d="m15.49,26.6s17.73-.71,18.62.05-6.18,1.75-6.3,1.66-12.32-1.71-12.32-1.71Z"/>
    <rect class="cls-5" x="24.51" y="20.5" width="1.21" height="6.94"/>
    <path class="cls-2" d="m34.53,27.53l-.12.78-.18,1.15-2.2,13.66c-.05.32-.33.56-.66.56h-12.5c-.33,0-.61-.24-.66-.56l-2.2-13.66-.18-1.15-.12-.78s0,0,0,0h18.83s0,0,0,0Z"/>
    <polygon class="cls-6" points="34.41 28.31 34.22 29.45 16.01 29.45 15.82 28.31 34.41 28.31"/>
    <path class="cls-2" d="m15.7,28.23s17.02,1.63,18.57,0c.77-.81,1.45-2.57-.82-1.69s-16.2.98-17.74-.29c-2.32,1.17,0,1.98,0,1.98Z"/>
  </g>
  <path class="cls-5" d="m17.59,24.46s-1.59-2.54,1.55-2.86,5.69,0,5.69,0"/>
  <path class="cls-3" d="m18.32,6.07s2.87,17.2-.73,18.39h14.39s2.4,1.2,0-17.99l-13.66-.41Z"/>
  <path class="cls-5" d="m26.66,11.51l.65,2c.05.16.2.27.37.27h2.1c.38,0,.53.48.23.7l-1.7,1.24c-.14.1-.19.27-.14.43l.65,2c.12.36-.29.66-.6.43l-1.7-1.24c-.14-.1-.32-.1-.46,0l-1.7,1.24c-.3.22-.71-.08-.6-.43l.65-2c.05-.16,0-.34-.14-.43l-1.7-1.24c-.3-.22-.15-.7.23-.7h2.1c.17,0,.32-.11.37-.27l.65-2c.12-.36.62-.36.74,0Z"/>
  <path class="cls-5" d="m25.32,7.15l4.97.18.89,4.84s-1.32-4.86-5.86-5.02Z"/>
</svg>