<?xml version="1.0" encoding="UTF-8"?>
<svg id="Laag_1" data-name="Laag 1" xmlns="http://www.w3.org/2000/svg" viewBox="0 0 25 46.26">
  <defs>
    <style>
      .cls-1 {
        fill: #b66d4a;
      }

      .cls-1, .cls-2, .cls-3, .cls-4 {
        stroke-width: 0px;
      }

      .cls-2 {
        fill: #628469;
      }

      .cls-3 {
        fill: #0c3721;
      }

      .cls-4 {
        fill: #895b3b;
      }
    </style>
  </defs>
  <g>
    <path class="cls-4" d="m1,25.26s21.8-.87,22.9.06-7.6,2.15-7.75,2.04S1,25.26,1,25.26Z"/>
    <rect class="cls-3" x="12.1" y="17.75" width="1.49" height="8.54"/>
    <path class="cls-1" d="m24.43,26.4l-.15.95-.23,1.41-2.7,16.8c-.07.4-.41.69-.81.69H5.16c-.4,0-.75-.29-.81-.69L1.64,28.76l-.23-1.41-.15-.95s0,0,0,0h23.15s0,0,0,0Z"/>
    <polygon class="cls-4" points="24.27 27.35 24.05 28.76 1.64 28.76 1.41 27.35 24.27 27.35"/>
    <path class="cls-1" d="m1.27,27.26s20.93,2,22.83,0c.95-1,1.78-3.16-1.01-2.08s-19.92,1.2-21.82-.36c-2.85,1.44,0,2.44,0,2.44Z"/>
  </g>
  <path class="cls-3" d="m3.59,22.62s-1.96-3.12,1.91-3.52,7,0,7,0"/>
  <path class="cls-2" d="m4.49,0s3.53,21.15-.9,22.62h17.7s2.95,1.47,0-22.12L4.49,0Z"/>
  <path class="cls-3" d="m14.74,6.69l.8,2.46c.06.2.25.33.45.33h2.59c.46,0,.65.59.28.86l-2.09,1.52c-.17.12-.24.34-.17.53l.8,2.46c.14.44-.36.81-.73.53l-2.09-1.52c-.17-.12-.39-.12-.56,0l-2.09,1.52c-.37.27-.88-.09-.73-.53l.8-2.46c.06-.2,0-.41-.17-.53l-2.09-1.52c-.37-.27-.18-.86.28-.86h2.59c.21,0,.39-.13.45-.33l.8-2.46c.14-.44.77-.44.91,0Z"/>
  <path class="cls-3" d="m13.09,1.33l6.11.22,1.09,5.95s-1.62-5.97-7.21-6.18Z"/>
</svg>