<?xml version="1.0" encoding="UTF-8"?>
<svg id="Laag_1" data-name="Laag 1" xmlns="http://www.w3.org/2000/svg" viewBox="0 0 25 43.47">
  <defs>
    <style>
      .cls-1 {
        fill: #b66d4a;
      }

      .cls-1, .cls-2, .cls-3, .cls-4 {
        stroke-width: 0px;
      }

      .cls-2 {
        fill: #628469;
      }

      .cls-3 {
        fill: #0c3721;
      }

      .cls-4 {
        fill: #895b3b;
      }
    </style>
  </defs>
  <g>
    <g>
      <path class="cls-4" d="m1,23.29s21.8-.87,22.9.06-7.6,2.15-7.75,2.04S1,23.29,1,23.29Z"/>
      <rect class="cls-3" x="12.1" y="10.2" width="1.44" height="13.89"/>
      <path class="cls-1" d="m24.06,24.2l-.15.93-.22,1.37-2.62,16.3c-.06.39-.4.67-.79.67H5.36c-.39,0-.73-.29-.79-.67L1.95,26.5l-.22-1.37-.15-.93s0,0,0,0h22.46s0,0,0,0Z"/>
      <polygon class="cls-4" points="23.91 25.13 23.69 26.5 1.95 26.5 1.73 25.13 23.91 25.13"/>
      <path class="cls-1" d="m1.27,25.29s20.93,2,22.83,0c.95-1,1.78-3.16-1.01-2.08s-19.92,1.2-21.82-.36c-2.85,1.44,0,2.44,0,2.44Z"/>
    </g>
    <path class="cls-2" d="m24.87,1.79v10.68c0,.78-.63,1.41-1.41,1.41H6.58c-.28,0-.56.09-.79.24l-2.81,1.91c-.94.64-2.21-.03-2.21-1.17V1.79C.77,1.01,1.41.38,2.19.38h21.27c.78,0,1.41.63,1.41,1.41Z"/>
    <path class="cls-3" d="m8.45,3.28l-3.74,7.46c-.05.1-.14.17-.25.2l-.86.22c-.19.05-.39-.06-.45-.24l-.27-.78c-.03-.1-.03-.21.02-.3l3.75-7.47c.09-.19.32-.26.51-.17l1.13.57c.19.09.26.32.17.51Z"/>
  </g>
  <path class="cls-2" d="m2.19.38S14.88-.48,23.45.38"/>
  <path class="cls-3" d="m9.76,3.95s1.9-1.09,5.29,0,4.21-.97,6.52-.48,1.23,1.57,1.23,1.57c0,0-1.09,1.09-2.17,0s-6.52,1.09-7.6,0-2.17,0-3.26,0,0-1.09,0-1.09Z"/>
  <path class="cls-3" d="m7.8,6.13c1.05-1.29,6.03-.16,6.73,0,2.98.68,3.79,1.49,5.38,1.09,1.38-.35,2.24-1.34,2.69-1.09.28.16.24.7,0,1.09-.57.92-2.48,1.28-4.04,1.09-2.36-.3-2.55-1.72-5.38-2.17-.72-.11-1.63-.26-2.69,0-1.5.37-2.28,1.3-2.69,1.09-.27-.14-.31-.71,0-1.09Z"/>
  <path class="cls-3" d="m6.61,9.39c.35-.9,1.57-1.36,2.31-1.09.65.24.57.9,1.16,1.09.73.23,1.28-.67,2.31-1.09,1.76-.71,2.69.9,5.78,1.09,2.47.15,4.07-.76,4.62,0,.22.3.19.76,0,1.09-.74,1.26-4.32,1.15-6.93,0-1.43-.63-1.45-1.07-2.31-1.09-1.91-.04-2.5,2.16-4.62,2.17-.82,0-1.95-.31-2.31-1.09-.23-.5-.04-.99,0-1.09Z"/>
</svg>