<?xml version="1.0" encoding="UTF-8"?>
<svg id="Laag_1" data-name="Laag 1" xmlns="http://www.w3.org/2000/svg" viewBox="0 0 26.12 42.94">
  <defs>
    <style>
      .cls-1 {
        fill: #b66d4a;
      }

      .cls-1, .cls-2, .cls-3, .cls-4, .cls-5 {
        stroke-width: 0px;
      }

      .cls-2 {
        fill: #628469;
      }

      .cls-3 {
        fill: #5888ba;
      }

      .cls-4 {
        fill: #0c3721;
      }

      .cls-5 {
        fill: #895b3b;
      }
    </style>
  </defs>
  <g>
    <rect class="cls-4" x="10.46" y="17.66" width="1.25" height="7.57"/>
    <path class="cls-1" d="m20.77,25.33l-.13.85-.19,1.25-2.26,14.9c-.05.35-.34.61-.68.61H4.66c-.34,0-.63-.26-.68-.61l-2.26-14.9-.19-1.25-.13-.85s0,0,0,0h19.36s0,0,0,0Z"/>
    <polygon class="cls-5" points="20.65 26.17 20.46 27.43 1.72 27.43 1.53 26.17 20.65 26.17"/>
  </g>
  <path class="cls-2" d="m5.52,7.37c.04-2.55,3.19-5.13,6.3-4.72,2.21.29,4.61,2.12,4.72,4.72.09,2.15-1.43,3.98-3.15,4.72-2.51,1.08-5.04-.31-6.3-1.57-.47-.47-1.6-1.61-1.57-3.15Z"/>
  <path class="cls-2" d="m2.46,19.3c.84-2.8,3.65-4.59,5.9-5.22,4.34-1.23,7.94,1.44,9.19,2.36.26.19,2.97,3.37,2.17,4.57-1.3,1.95-.89.77-6.74.79-6.77.02-10.09.53-10.67-1.05-.16-.43-.04-.83.14-1.44Z"/>
  <g>
    <path class="cls-3" d="m22.52,2.3c-.2.08-.55.22-.84.14-.48-.13-.77-.88-.47-1.27.61-.8,4.13-.77,4.79.3.56.91-1.09,2.79-2.81,3.14-.33.07-1,.14-1.07.39-.05.21.37.32.64.75.19.31.35.84.04,1.08-.34.26-1.19.13-1.66-.2-.83-.58-.66-1.91.17-2.45.44-.29.72-.12,1.74-.49.73-.26,1.51-.54,1.57-1,.05-.48-.69-1.02-1.17-.96-.32.04-.34.33-.93.57Z"/>
    <path class="cls-3" d="m22.18,8.27c-.01-.44-.87-.88-1.42-.67-.5.2-.68.92-.26,1.22.28.2.84.21.96.08.14-.15-.33-.48-.26-.53.08-.05.52.34.8.24.14-.05.19-.23.19-.34Z"/>
  </g>
  <g>
    <path class="cls-3" d="m19.24.12c-1.79.83-.98,6.05-.45,6.1.08,0,.22-.09.3-.16.17-.16.21-.37.23-.44.29-1.43,1.7-5.03.68-5.55-.3-.15-.68.02-.75.05Z"/>
    <path class="cls-3" d="m19.17,7.1c-.33.12-1.01.49-.92.78.06.19.42.3.7.25.27-.04.5-.22.58-.45.08-.21.06-.52-.09-.6-.08-.04-.18-.01-.26.02Z"/>
  </g>
  <path class="cls-5" d="m.89,24.58s19.34-.77,20.31.06-6.74,1.91-6.88,1.81-13.44-1.87-13.44-1.87Z"/>
  <path class="cls-1" d="m1.13,26.35s18.56,1.77,20.25,0c.84-.89,1.58-2.81-.9-1.85s-17.67,1.06-19.35-.32c-2.53,1.28,0,2.17,0,2.17Z"/>
</svg>