<?xml version="1.0" encoding="UTF-8"?>
<svg id="Laag_1" data-name="Laag 1" xmlns="http://www.w3.org/2000/svg" viewBox="0 0 25 45.84">
  <defs>
    <style>
      .cls-1 {
        fill: #b66d4a;
      }

      .cls-1, .cls-2, .cls-3, .cls-4, .cls-5 {
        stroke-width: 0px;
      }

      .cls-2 {
        fill: #628469;
      }

      .cls-3 {
        fill: #5888ba;
      }

      .cls-4 {
        fill: #0c3721;
      }

      .cls-5 {
        fill: #895b3b;
      }
    </style>
  </defs>
  <g id="home_icoon" data-name="home icoon">
    <g>
      <path class="cls-5" d="m1,25.26s21.8-.87,22.9.06-7.6,2.15-7.75,2.04S1,25.26,1,25.26Z"/>
      <rect class="cls-4" x="12.02" y="18.01" width="1.45" height="8.34"/>
      <path class="cls-1" d="m24.05,26.45l-.15.93-.22,1.38-2.64,16.4c-.06.39-.4.68-.79.68H5.25c-.39,0-.73-.29-.79-.68L1.81,28.76l-.22-1.38-.15-.93s0,0,0,0h22.6s0,0,0,0Z"/>
      <polygon class="cls-5" points="23.9 27.38 23.68 28.76 1.81 28.76 1.59 27.38 23.9 27.38"/>
      <path class="cls-1" d="m1.27,27.26s20.93,2,22.83,0c.95-1,1.78-3.16-1.01-2.08s-19.92,1.2-21.82-.36c-2.85,1.44,0,2.44,0,2.44Z"/>
    </g>
  </g>
  <path class="cls-3" d="m24.88,12.62c-.27,2.13-.92,3.79-1.83,5.07-.5.72-1.08,1.32-1.72,1.82-4.87,3.83-12.85,1.74-12.85,1.74,0,0-10.2-4.14-7.07-13.42.18-.52.36-1.01.57-1.46C3.17,3.69,4.8,2.12,6.42,1.2,9.42-.49,12.36.1,12.36.1c0,0,14.08,0,12.52,12.52Z"/>
  <path class="cls-2" d="m24.88,12.62c-.27,2.13-.92,3.79-1.83,5.07-2.25.12-4.63-.97-5.05-2.43-.66-2.28,3.67-4.8,3-6-.75-1.34-5.97,2.08-10,0-2.92-1.5-4.54-5.55-4.58-8.06C9.42-.49,12.36.1,12.36.1c0,0,14.08,0,12.52,12.52Z"/>
  <path class="cls-2" d="m21.33,19.51c-4.87,3.83-12.85,1.74-12.85,1.74,0,0-10.2-4.14-7.07-13.42.18-.52.36-1.01.57-1.46,1.28.22,2.67.84,3.02,1.89.42,1.27-1.07,2.06-1,4,.07,1.96,1.69,4.07,3,4,1.55-.08,1.58-3.14,4-4,1.53-.54,3.59-.06,4,1,.51,1.3-3.3,2.71-3,4,.39,1.69,7.11,1,9.33,2.25Z"/>
</svg>