<?xml version="1.0" encoding="UTF-8"?>
<svg id="Laag_1" data-name="Laag 1" xmlns="http://www.w3.org/2000/svg" viewBox="0 0 50 50">
  <defs>
    <style>
      .cls-1 {
        fill: #fef1e0;
      }

      .cls-1, .cls-2, .cls-3, .cls-4, .cls-5, .cls-6, .cls-7 {
        stroke-width: 0px;
      }

      .cls-2 {
        fill: #b66d4a;
      }

      .cls-3 {
        fill: #628469;
      }

      .cls-4 {
        fill: #e0b1a9;
      }

      .cls-5 {
        fill: #5888ba;
      }

      .cls-6 {
        fill: #0c3721;
      }

      .cls-7 {
        fill: #895b3b;
      }
    </style>
  </defs>
  <rect class="cls-1" width="50" height="50"/>
  <rect class="cls-4" x="4" y="4" width="42" height="42" rx="7.5" ry="7.5"/>
  <g>
    <g>
      <rect class="cls-6" x="24.18" y="21.07" width="1.1" height="6.68"/>
      <path class="cls-2" d="m33.28,27.84l-.11.75-.17,1.11-2,13.15c-.05.31-.3.54-.6.54h-11.35c-.3,0-.55-.23-.6-.54l-2-13.15-.17-1.11-.11-.75s0,0,0,0h17.09s0,0,0,0Z"/>
      <polygon class="cls-7" points="33.17 28.59 33 29.69 16.46 29.69 16.29 28.59 33.17 28.59"/>
    </g>
    <path class="cls-3" d="m19.82,11.99c.03-2.25,2.82-4.53,5.56-4.17,1.95.25,4.07,1.87,4.17,4.17.08,1.9-1.26,3.51-2.78,4.17-2.22.96-4.45-.27-5.56-1.39-.41-.41-1.41-1.42-1.39-2.78Z"/>
    <path class="cls-3" d="m17.12,22.52c.74-2.47,3.22-4.05,5.21-4.61,3.83-1.08,7.01,1.27,8.11,2.08.23.17,2.62,2.98,1.91,4.03-1.14,1.72-.79.68-5.95.69-5.98.02-8.91.47-9.42-.93-.14-.38-.03-.74.13-1.27Z"/>
    <g>
      <path class="cls-5" d="m34.83,7.52c-.17.07-.48.19-.74.12-.43-.12-.68-.77-.41-1.12.54-.71,3.65-.68,4.23.26.49.8-.96,2.47-2.48,2.77-.29.06-.89.13-.94.35-.05.18.33.28.57.66.17.27.31.74.03.95-.3.23-1.05.11-1.47-.17-.74-.51-.58-1.68.15-2.16.39-.25.63-.11,1.54-.43.64-.23,1.34-.48,1.38-.89.05-.42-.61-.9-1.03-.84-.29.04-.3.29-.82.5Z"/>
      <path class="cls-5" d="m34.52,12.78c0-.39-.77-.78-1.25-.59-.44.18-.6.81-.23,1.07.25.18.74.18.84.07.12-.13-.29-.42-.23-.47.07-.04.46.3.7.21.13-.05.17-.2.17-.3Z"/>
    </g>
    <g>
      <path class="cls-5" d="m31.93,5.59c-1.58.73-.87,5.34-.4,5.38.07,0,.19-.08.27-.14.15-.14.19-.32.2-.38.26-1.26,1.5-4.44.6-4.9-.27-.14-.6.02-.67.05Z"/>
      <path class="cls-5" d="m31.86,11.75c-.29.11-.89.43-.81.69.05.17.37.26.62.22.23-.04.44-.19.52-.4.07-.19.06-.46-.08-.53-.07-.04-.15-.01-.23.02Z"/>
    </g>
    <path class="cls-7" d="m15.73,27.18s17.07-.68,17.93.05-5.95,1.68-6.07,1.6-11.86-1.65-11.86-1.65Z"/>
    <path class="cls-2" d="m15.94,28.75s16.39,1.57,17.88,0c.74-.78,1.39-2.48-.79-1.63s-15.59.94-17.08-.28c-2.23,1.13,0,1.91,0,1.91Z"/>
  </g>
</svg>