<?xml version="1.0" encoding="UTF-8"?>
<svg xmlns="http://www.w3.org/2000/svg" viewBox="0 0 50 50">
  <defs>
    <style>
      .cls-1 {
        fill: #fef1e0;
      }

      .cls-1, .cls-2, .cls-3, .cls-4, .cls-5, .cls-6 {
        stroke-width: 0px;
      }

      .cls-2 {
        fill: #b66d4a;
      }

      .cls-3 {
        fill: #628469;
      }

      .cls-4 {
        fill: #e0b1a9;
      }

      .cls-5 {
        fill: #0c3721;
      }

      .cls-6 {
        fill: #895b3b;
      }
    </style>
  </defs>
  <g id="Laag_1" data-name="Laag 1">
    <rect class="cls-1" width="50" height="50"/>
    <rect class="cls-4" x="4" y="4" width="42" height="42" rx="7.4" ry="7.4"/>
  </g>
  <g id="Laag_2" data-name="Laag 2">
    <g>
      <g>
        <path class="cls-6" d="m14.84,26.75s18.31-.73,19.24.05-6.39,1.81-6.51,1.72-12.73-1.77-12.73-1.77Z"/>
        <rect class="cls-5" x="24.16" y="15.76" width="1.21" height="11.67"/>
        <path class="cls-2" d="m34.21,27.52l-.13.78-.18,1.15-2.2,13.69c-.05.32-.33.56-.66.56h-12.53c-.33,0-.61-.24-.66-.56l-2.2-13.69-.18-1.15-.13-.78s0,0,0,0h18.87s0,0,0,0Z"/>
        <polygon class="cls-6" points="34.08 28.3 33.9 29.45 15.64 29.45 15.45 28.3 34.08 28.3"/>
        <path class="cls-2" d="m15.07,28.43s17.58,1.68,19.18,0c.8-.84,1.5-2.66-.85-1.75s-16.73,1.01-18.33-.3c-2.4,1.21,0,2.05,0,2.05Z"/>
      </g>
      <path class="cls-3" d="m34.89,8.7v8.97c0,.65-.53,1.19-1.19,1.19h-14.17c-.24,0-.47.07-.67.21l-2.36,1.61c-.79.54-1.85-.03-1.85-.98v-10.99c0-.65.53-1.19,1.19-1.19h17.87c.65,0,1.19.53,1.19,1.19Z"/>
      <path class="cls-5" d="m21.1,9.95l-3.15,6.27c-.04.08-.12.14-.21.17l-.72.18c-.16.04-.33-.05-.38-.2l-.23-.65c-.03-.08-.02-.17.02-.25l3.15-6.28c.08-.16.27-.22.43-.14l.95.48c.16.08.22.27.14.43Z"/>
    </g>
    <path class="cls-3" d="m15.84,7.51s10.66-.72,17.87,0"/>
    <path class="cls-5" d="m22.2,10.51s1.59-.91,4.45,0,3.53-.81,5.48-.41,1.03,1.32,1.03,1.32c0,0-.91.91-1.83,0s-5.48.91-6.39,0-1.83,0-2.74,0,0-.91,0-.91Z"/>
    <path class="cls-5" d="m20.55,12.34c.88-1.09,5.06-.13,5.65,0,2.5.57,3.19,1.25,4.52.91,1.16-.29,1.88-1.12,2.26-.91.24.13.2.59,0,.91-.48.78-2.09,1.08-3.39.91-1.98-.25-2.14-1.45-4.52-1.83-.61-.1-1.37-.22-2.26,0-1.26.31-1.91,1.09-2.26.91-.23-.12-.26-.6,0-.91Z"/>
    <path class="cls-5" d="m19.55,15.07c.3-.75,1.32-1.14,1.94-.91.55.2.48.76.97.91.61.19,1.08-.56,1.94-.91,1.48-.6,2.26.76,4.85.91,2.07.12,3.42-.64,3.88,0,.18.26.16.64,0,.91-.62,1.06-3.62.96-5.82,0-1.2-.53-1.22-.9-1.94-.91-1.61-.03-2.1,1.81-3.88,1.83-.69,0-1.64-.26-1.94-.91-.19-.42-.03-.83,0-.91Z"/>
  </g>
</svg>