<?xml version="1.0" encoding="UTF-8"?>
<svg id="Laag_6" data-name="Laag 6" xmlns="http://www.w3.org/2000/svg" viewBox="0 0 595.28 595.28">
  <defs>
    <style>
      .cls-1, .cls-2, .cls-3 {
        stroke-miterlimit: 10;
      }

      .cls-1, .cls-3 {
        fill: #2d3e2b;
        stroke: #2d3e2b;
      }

      .cls-2 {
        fill: #f6e7e4;
        stroke: #cbcabf;
      }

      .cls-2, .cls-3 {
        stroke-width: 6.9px;
      }

      .cls-4 {
        fill: #628469;
      }

      .cls-4, .cls-5, .cls-6, .cls-7 {
        stroke-width: 0px;
      }

      .cls-5 {
        fill: #5889bb;
      }

      .cls-6 {
        fill: #e0b1a9;
      }

      .cls-7 {
        fill: #faf8e9;
      }
    </style>
  </defs>
  <g>
    <path class="cls-1" d="m329.22,382.65c-18.28,0-38.05-1.47-58.78-4.38-57.49-8.07-101.26-22.78-130.09-43.74-33.88-24.63-48.19-57.52-42.54-97.76,4.67-33.29,21.71-60.25,49.26-77.98,25.99-16.72,60.59-25.19,102.83-25.19,16.32,0,33.85,1.3,52.11,3.86,56.52,7.93,102.7,24.17,133.53,46.96,35.53,26.25,51.36,61.12,45.79,100.83-4.41,31.42-20.12,55.87-46.69,72.65-26.02,16.43-61.48,24.77-105.42,24.77Z"/>
    <path class="cls-1" d="m329.22,376.98c-18.01,0-37.52-1.46-57.99-4.33-56.56-7.94-99.47-22.31-127.54-42.71-32.05-23.3-45.6-54.38-40.26-92.39,4.44-31.61,20.59-57.19,46.71-74,25.06-16.12,58.63-24.29,99.77-24.29,16.06,0,33.32,1.28,51.32,3.8,55.59,7.8,100.87,23.67,130.95,45.9,33.75,24.94,48.81,57.96,43.54,95.48-8.37,59.67-60.4,92.54-146.49,92.54Z"/>
    <path class="cls-1" d="m329.22,372.65c-17.81,0-37.12-1.44-57.39-4.29-55.85-7.84-98.11-21.94-125.6-41.93-30.65-22.28-43.61-51.99-38.52-88.28,4.31-30.75,19.38-54.63,44.77-70.96,24.35-15.66,57.13-23.6,97.42-23.6,15.86,0,32.92,1.27,50.72,3.76,54.88,7.7,99.48,23.29,128.98,45.09,32.39,23.94,46.86,55.54,41.83,91.4-8.04,57.27-58.54,88.81-142.2,88.81Z"/>
    <path class="cls-1" d="m465.8,283.05c-9.94,70.86-87.38,94.54-193.19,79.69-105.81-14.85-169.24-52.95-159.29-123.81,9.94-70.86,80.7-100.82,186.5-85.97,105.81,14.85,175.92,59.23,165.98,130.09Z"/>
    <path class="cls-3" d="m323.91,367.98c-15.91,0-33.11-1.28-51.13-3.81-50.07-7.03-88.25-19.88-113.47-38.22-29.98-21.8-42.65-50.92-37.65-86.57,4.13-29.42,19.19-53.26,43.56-68.93,22.83-14.68,53.14-22.13,90.09-22.13,14.21,0,29.48,1.13,45.36,3.36,49.24,6.91,89.51,21.09,116.46,41.01,31.39,23.2,45.38,54.05,40.44,89.21-3.9,27.78-17.74,49.39-41.15,64.24-22.86,14.5-53.98,21.85-92.51,21.85Z"/>
    <path class="cls-3" d="m323.91,362.31c-15.64,0-32.58-1.26-50.35-3.76-49.14-6.9-86.47-19.41-110.93-37.19-28.16-20.47-40.06-47.79-35.37-81.19,3.89-27.74,18.07-50.2,41.01-64.95,21.9-14.08,51.18-21.23,87.02-21.23,13.95,0,28.95,1.11,44.57,3.3,48.3,6.78,87.68,20.59,113.88,39.95,29.62,21.89,42.82,50.89,38.2,83.86-7.35,52.36-52.82,81.2-128.05,81.2Z"/>
    <path class="cls-3" d="m323.91,357.98c-15.44,0-32.18-1.25-49.74-3.71-48.43-6.8-85.1-19.04-108.98-36.41-26.76-19.46-38.07-45.39-33.63-77.09,3.76-26.83,16.91-47.66,39.07-61.91,21.19-13.63,49.68-20.54,84.68-20.54,13.75,0,28.55,1.1,43.97,3.26,47.59,6.68,86.29,20.21,111.91,39.15,28.26,20.88,40.87,48.47,36.48,79.78-7.01,49.96-50.96,77.47-123.76,77.47Z"/>
    <path class="cls-3" d="m442.05,279.72c-8.6,61.29-75.58,81.77-167.1,68.93-91.52-12.84-146.38-45.8-137.78-107.09,8.6-61.29,69.8-87.2,161.32-74.36,91.52,12.84,152.16,51.23,143.56,112.52Z"/>
    <g>
      <path class="cls-1" d="m419.77,469.12c-10.14,0-62.41-2.92-96.05-60.65-1.46-2.47-2.89-5.08-4.23-7.71-3.39-6.62-6.99-12.54-10.69-17.61-14.15-19.44-28.16-24.97-41.71-30.32-16.12-6.36-36.17-14.27-39.77-46.42-4.45-39.54,18.81-74.19,62.23-92.68,15.44-6.57,33.3-10.18,53.09-10.74,1.84-.05,3.73-.08,5.6-.08,38.35,0,78.13,11.37,106.42,30.41,16.57,11.13,28.41,24.22,35.2,38.89,25.1,54.27,26.12,112.81,2.66,152.75-15.38,26.19-39.66,41.81-68.37,43.99-1.37.1-2.84.16-4.39.16Z"/>
      <path class="cls-1" d="m419.77,463.45c-9.59,0-59.07-2.79-91.15-57.83-1.41-2.39-2.79-4.9-4.07-7.42-3.53-6.89-7.29-13.08-11.17-18.38-15.11-20.76-30.57-26.86-44.21-32.25-16.22-6.4-33-13.02-36.22-41.78-4.16-36.91,17.83-69.38,58.82-86.83,14.78-6.29,31.95-9.75,51.03-10.29,1.79-.05,3.62-.08,5.44-.08,37.26,0,75.87,11.01,103.26,29.45,15.69,10.54,26.87,22.85,33.22,36.57,24.33,52.61,25.45,109.13,2.92,147.5-14.41,24.54-37.1,39.17-63.91,41.21-1.23.09-2.56.14-3.96.14Z"/>
      <path class="cls-1" d="m419.77,459.12c-9.18,0-56.52-2.68-87.41-55.68-1.38-2.33-2.71-4.77-3.95-7.21-3.64-7.1-7.52-13.49-11.53-18.98-15.85-21.78-31.93-28.12-46.12-33.72-15.72-6.2-30.58-12.06-33.51-38.23-3.93-34.91,17.08-65.7,56.21-82.36,14.28-6.07,30.92-9.42,49.46-9.95,1.75-.05,3.54-.08,5.32-.08,36.44,0,74.13,10.73,100.84,28.71,15.03,10.1,25.7,21.81,31.71,34.8,23.74,51.34,24.94,106.33,3.11,143.49-13.67,23.28-35.15,37.16-60.5,39.08-1.12.08-2.34.13-3.64.13Z"/>
      <path class="cls-1" d="m422.98,453.34c-12.6.95-56.85-3.23-85.72-52.76-1.31-2.22-2.57-4.52-3.8-6.92-3.92-7.66-7.93-14.18-12.01-19.75-35.26-48.45-73.69-25.7-78.56-69.24-3.82-33.91,17.66-61.56,52.8-76.52,13.99-5.95,30.32-9.01,47.4-9.5,36.13-1.08,75.53,9.28,102.83,27.67,13.44,9.03,23.95,19.98,29.73,32.48,39.86,86.2,10.7,169.73-52.67,174.54Z"/>
      <path class="cls-1" d="m321.45,389.58c-4.99,0-9.73-2.41-12.67-6.45-14.13-19.42-28.14-24.94-41.69-30.29-16.12-6.36-36.17-14.27-39.77-46.42-4.45-39.54,18.81-74.19,62.23-92.68,15.44-6.57,33.3-10.18,53.09-10.74.14,0,.29,0,.45,0,6.46,0,12.34,4.06,14.64,10.09,9.67,25.37,9.22,43.42-1.37,55.18-8.53,9.57-19.79,10.56-28.84,11.36-7.78.69-12.35,1.25-15.78,4.76-2.02,2.06-4.81,6.65-4.4,8.87.49,1.1,5.63,3.93,7.82,5.14,6.89,3.8,16.32,8.99,22.48,19.15,10.98,18.11,6.86,44.8-2.09,63.22-2.39,4.92-7.26,8.28-12.71,8.76-.46.04-.92.06-1.38.06Z"/>
      <path class="cls-1" d="m321.45,383.91c-3.18,0-6.19-1.52-8.08-4.12-15.1-20.75-30.56-26.85-44.2-32.23-16.22-6.4-33-13.02-36.22-41.78-4.16-36.91,17.83-69.38,58.82-86.83,14.78-6.29,31.95-9.75,51.03-10.29.1,0,.19,0,.29,0,4.14,0,7.86,2.55,9.34,6.44,8.83,23.19,8.74,39.34-.29,49.37-7.06,7.91-16.66,8.76-25.12,9.51-7.65.68-14.26,1.26-19.33,6.44-1.89,1.92-6.9,8.47-5.93,13.84.59,3.25,3.55,5.17,10.67,9.1,6.68,3.68,14.99,8.26,20.37,17.12,9.88,16.29,5.94,40.77-2.34,57.8-1.54,3.16-4.61,5.28-8.11,5.59-.29.03-.59.04-.88.04Z"/>
      <path class="cls-1" d="m321.45,379.58c-1.8,0-3.51-.86-4.58-2.33-15.84-21.77-31.92-28.11-46.11-33.71-15.72-6.2-30.58-12.06-33.51-38.23-3.93-34.91,17.08-65.7,56.21-82.36,14.28-6.07,30.92-9.42,49.46-9.95.05,0,.11,0,.16,0,2.35,0,4.46,1.45,5.3,3.65,8.2,21.53,8.38,36.23.54,44.93-5.93,6.64-14.24,7.38-22.29,8.09-8.15.72-15.85,1.4-22.04,7.72-.13.13-8.67,8.97-7.1,17.65.97,5.34,5.51,8.08,12.84,12.12,6.55,3.61,13.98,7.7,18.76,15.58,9.03,14.89,5.23,37.68-2.53,53.66-.87,1.79-2.62,2.99-4.6,3.17-.17.01-.33.02-.5.02Z"/>
      <path class="cls-1" d="m344.71,257.79c-9.6,10.76-29.9,1.08-44.17,15.64-.78.78-10.7,11.18-8.63,22.62,2.76,15.19,23.57,15.19,32.33,29.63,7.34,12.11,4.96,32.31-2.79,48.24-35.26-48.45-73.69-25.7-78.56-69.24-3.82-33.91,17.66-61.56,52.8-76.52,13.99-5.95,30.32-9.01,47.4-9.5,8.84,23.21,6.37,33.85,1.62,39.12Z"/>
      <path class="cls-1" d="m419.77,469.12c-10.14,0-62.41-2.92-96.05-60.65-1.86-3.18-2.53-6.94-1.9-10.57,4.45-25.59,20.1-55,43.96-59.1,1.72-.3,3.47-.45,5.2-.45,9.7,0,17.25,4.49,25.24,9.25,8.36,4.97,18.75,11.16,36.43,15.69,6.99,1.8,10.66,2.18,12.51,2.18.71,0,1.07-.06,1.2-.08l.04-.02c1.94-1.09,4.61-5.32,5.71-11,1.23-6.33.1-11.87-1.65-14.07-1.13-1.42-4.13-1.89-10.87-2.47-9.9-.85-23.44-2.02-34.03-14.33-14.48-16.86-12.76-43.26-3.58-60.63,7.43-14.13,21.21-25.27,38.8-31.35,1.65-.57,3.37-.86,5.12-.86,3.12,0,6.15.92,8.74,2.66,16.57,11.14,28.42,24.22,35.21,38.9,25.1,54.27,26.12,112.81,2.66,152.75-15.38,26.19-39.66,41.81-68.37,43.99-1.37.1-2.84.16-4.39.16Z"/>
      <path class="cls-1" d="m419.77,463.45c-9.59,0-59.07-2.79-91.15-57.83-1.19-2.04-1.62-4.43-1.21-6.75,4.25-24.45,19.12-51.01,39.33-54.49,1.4-.24,2.83-.36,4.24-.36,8.14,0,14.73,3.92,22.34,8.45,8.67,5.16,19.45,11.57,37.92,16.31,6.07,1.56,10.75,2.35,13.91,2.35,2.54,0,3.43-.5,4.02-.83,3.83-2.16,7.16-7.99,8.5-14.86,1.44-7.42.35-14.75-2.79-18.69-2.71-3.39-7.17-3.92-14.81-4.58-9.42-.81-21.14-1.82-30.22-12.37-12.83-14.93-11.15-38.61-2.86-54.29,6.76-12.86,19.42-23.04,35.64-28.64,1.06-.37,2.17-.55,3.27-.55,1.96,0,3.91.58,5.58,1.7,15.7,10.55,26.88,22.85,33.23,36.58,24.33,52.61,25.45,109.13,2.92,147.5-14.41,24.54-37.1,39.17-63.91,41.21-1.23.09-2.56.14-3.96.14Z"/>
      <path class="cls-1" d="m419.77,459.12c-9.18,0-56.52-2.68-87.41-55.68-.67-1.15-.92-2.51-.69-3.82,4.57-26.33,19.96-48.24,35.79-50.96,1.16-.2,2.34-.3,3.51-.3,6.95,0,12.77,3.46,20.13,7.84,8.43,5.02,19.98,11.89,39.06,16.78,6.51,1.68,11.41,2.49,14.99,2.49,3.23,0,4.87-.67,6.15-1.39,4.96-2.8,9.04-9.62,10.63-17.8,1.7-8.74.3-17.25-3.65-22.21-3.81-4.76-9.26-5.46-17.83-6.2-9.08-.78-19.38-1.67-27.3-10.88-11.44-13.32-9.73-35.41-2.32-49.44,6.25-11.89,18.05-21.33,33.23-26.57.6-.21,1.23-.31,1.85-.31,1.11,0,2.21.33,3.16.96,15.03,10.1,25.7,21.81,31.72,34.8,23.74,51.34,24.94,106.33,3.11,143.49-13.67,23.28-35.15,37.16-60.5,39.08-1.12.08-2.34.13-3.64.13Z"/>
      <path class="cls-1" d="m422.98,453.34c-12.6.95-56.85-3.23-85.72-52.76,4.01-23.09,17.54-44,31.17-46.34,13.59-2.34,22.54,14.54,60.33,24.23,15.17,3.9,20.93,3.02,25.32.55,14.12-7.96,19.1-35.37,8.63-48.49-11.18-13.99-32.58-2.49-45.26-17.24-9.64-11.23-8.21-30.6-1.6-43.09,6.01-11.44,17.62-19.56,30.07-23.87,13.44,9.03,23.95,19.98,29.73,32.48,39.86,86.2,10.7,169.73-52.67,174.54Z"/>
      <path class="cls-1" d="m379.86,343.03c-10.28,0-19.76-4.28-25.43-6.84-16.18-7.31-44.84-26.94-37.51-48.88,4.17-12.47,16.18-15.11,23.36-16.69,1.27-.28,3.78-.83,5.41-1.37-.08-.33-.17-.71-.28-1.15-1.28-5.19-3.42-13.89,1.14-24.19,6.03-13.64,20.9-23.53,35.35-23.53,3.3,0,6.53.5,9.61,1.48,13.02,4.16,25.32,17.94,22.48,32.93-2.02,10.64-10.42,15-14.46,17.09-2.37,1.23-3.45,1.82-4.25,2.96-1.75,2.5-2.34,7.13-1.3,10.1.52,1.49,1.38,2.38,4.3,4.88,4.06,3.48,11.61,9.97,12.19,21.62.48,9.62-4.27,19.69-12.09,25.64-5.2,3.95-11.43,5.96-18.52,5.96Z"/>
      <path class="cls-1" d="m379.86,337.37c-9.06,0-17.85-3.97-23.1-6.34-11.71-5.29-40.73-23.14-34.46-41.92,3.15-9.42,12.43-11.46,19.2-12.95,5.18-1.14,8.92-2.1,9.96-4.1.43-.84.34-1.73-.54-5.31-1.18-4.78-2.96-12.01.82-20.54,5.17-11.68,17.86-20.16,30.17-20.16,2.71,0,5.36.41,7.88,1.21,10.77,3.44,20.83,14.9,18.63,26.48-1.5,7.93-7.76,11.18-11.5,13.11-2.6,1.35-4.66,2.42-6.29,4.75-2.78,3.99-3.64,10.53-2,15.22,1.05,2.99,2.85,4.64,5.95,7.3,3.89,3.34,9.76,8.38,10.22,17.6.39,7.81-3.48,15.99-9.86,20.84-4.19,3.19-9.27,4.8-15.09,4.8Z"/>
      <path class="cls-1" d="m379.86,333.03c-8.13,0-16.38-3.73-21.31-5.96-12.58-5.68-36.98-22.11-32.14-36.6,2.37-7.09,9.62-8.69,16.02-10.09,6.54-1.44,10.97-2.65,12.88-6.34,1.21-2.34.77-4.47-.18-8.34-1.16-4.71-2.6-10.57.57-17.75,4.44-10.02,15.7-17.58,26.21-17.58,2.26,0,4.47.34,6.56,1.01,8.82,2.82,17.44,12.36,15.7,21.54-1.11,5.86-5.62,8.2-9.24,10.08-2.88,1.49-5.61,2.91-7.85,6.12-3.62,5.19-4.66,13.06-2.53,19.13,1.48,4.23,4.27,6.62,7.22,9.16,3.72,3.2,8.35,7.17,8.71,14.53.32,6.43-2.88,13.17-8.16,17.18-3.42,2.6-7.62,3.92-12.47,3.92Z"/>
      <path class="cls-1" d="m331.78,292.28c2.9-8.67,22.43-3.77,28.56-15.62,4.58-8.86-4.16-15.79.54-26.4,3.99-9.01,15.89-16.66,25.86-13.47,6.72,2.15,12.94,9.33,11.85,15.09-1.19,6.29-10.06,5.26-16.16,14.01-4.64,6.65-5.95,16.49-3.23,24.25,4.09,11.67,15.15,12.53,15.62,22.09.25,5-2.53,9.81-5.93,12.39-8.22,6.25-21.25.36-28.02-2.69-14.12-6.38-32.1-20.65-29.09-29.63Z"/>
    </g>
    <g>
      <path class="cls-1" d="m121.5,198.93c-8.58,0-16.01-4.26-20.91-12-4.1-6.47-5.43-16.58,3.14-25.57.14-.15.36-.38.64-.65l-6.91-13.16c-.06-.02-.12-.04-.18-.06-4-1.24-7.27-3.97-9.22-7.68l-1.5-2.86c-2.67-5.08-2.35-11.2.83-15.98l8.06-12.09c1.45-2.17,3.44-3.97,5.75-5.18l4.11-2.16c1.3-.69,2.68-1.18,4.1-1.47,1.67-1.33,3.49-2.51,5.44-3.54,4.89-2.57,10.05-3.87,15.35-3.87,12.62,0,24.14,7.57,30.8,20.26,4.73,9.01,5.99,18.32,3.63,26.94-2.05,7.51-6.63,13.84-13.34,18.52.05.28.11.56.15.84,1.16,6.81.44,13.79-2.09,20.17-1.46,3.69-5.87,12.68-15.22,16.52-1.65.68-3.14,1.09-4.22,1.4l-.16.05c-.24.07-.49.13-.73.21l-.24.08c-1.2.4-3.48,1.17-6.47,1.26-.27,0-.54.01-.81.01h0Z"/>
      <path class="cls-1" d="m121.51,193.26c-4.65,0-11.22-1.62-16.13-9.37-1.43-2.26-5.49-10.28,2.46-18.62.49-.52,1.77-1.86,3.86-2.79l-10.49-19.97c-.76-.05-1.51-.2-2.25-.43-2.53-.79-4.65-2.55-5.88-4.9l-1.5-2.86c-1.7-3.24-1.5-7.15.53-10.2l8.06-12.09c.93-1.39,2.19-2.53,3.67-3.31l4.11-2.16c1.24-.65,2.56-1.02,3.88-1.12,1.67-1.48,3.57-2.79,5.66-3.89,4.07-2.14,8.35-3.22,12.71-3.22,10.48,0,20.12,6.44,25.78,17.23,4.05,7.71,5.15,15.6,3.18,22.81-2.01,7.35-6.99,13.36-14.41,17.4.48,1.42.85,2.88,1.11,4.41.99,5.79.37,11.71-1.77,17.13-1.19,3.01-4.76,10.35-12.1,13.36-1.35.55-2.6.9-3.6,1.19-.37.1-.75.21-1.12.33l-.26.09c-1.01.34-2.7.91-4.86.98-.21,0-.42,0-.63,0Z"/>
      <path class="cls-1" d="m121.51,188.93c-3.56,0-8.61-1.28-12.47-7.36-1.29-2.04-3.69-7.41,1.93-13.32.41-.43,1.26-1.32,2.66-1.9.85-.35,1.77-.53,2.74-.53.31,0,.62.02.92.05.32.03.64.07.95.11-.42-1.07-.98-2.23-1.66-3.52l-12.89-24.55c-.57.19-1.16.28-1.76.28s-1.13-.08-1.68-.26c-1.44-.45-2.64-1.45-3.33-2.78l-1.5-2.86c-.96-1.84-.85-4.05.3-5.78l8.06-12.09c.53-.79,1.24-1.43,2.08-1.88l4.11-2.16c.84-.44,1.74-.65,2.63-.65.31,0,.62.03.92.08,1.68-1.73,3.68-3.23,5.98-4.43,3.44-1.81,7.04-2.73,10.7-2.73,8.97,0,16.97,5.43,21.95,14.91,3.53,6.72,4.51,13.52,2.84,19.65-1.73,6.33-6.14,11.51-12.76,14.98-1.04.55-2.09,1.01-3.13,1.4,1.23,2.3,2.05,4.69,2.5,7.3.85,5.01.32,10.13-1.53,14.81-.77,1.95-3.75,8.5-9.72,10.95-1.12.46-2.19.76-3.13,1.02-.43.12-.86.24-1.29.38l-.3.1c-.89.3-2.1.7-3.62.75-.17,0-.33,0-.49,0Zm9.6-50.46c.27-.05.57-.17.9-.34,1.12-.59,1.14-.93,1.16-1.45.04-.93-.26-3.18-2.65-7.73-2.79-5.31-4.76-6.71-5.41-6.71-.13,0-.52.04-1.23.41-.36.19-.62.37-.8.54l8.03,15.29Z"/>
      <path class="cls-1" d="m124.27,172.42c.06-.1.1-.22.13-.34,1.07-4.33-.82-8.5-2.79-12.26-4.78-9.1-9.56-18.2-14.34-27.29-.81-1.54-1.67-1.93-2.99-1.24l-2.35,1.23-1.5-2.86,8.06-12.09,4.11-2.16,1.77,3.37c1.3-3.4,3.8-6.3,7.76-8.38,9.17-4.82,19.25-1.13,24.99,9.8,5.78,11,3.1,21.4-7.54,26.98-3.3,1.73-6.36,2.31-9.26,1.96.68.08,2.94,5.69,3.41,6.49,1.15,1.96,1.88,3.95,2.26,6.21.67,3.94.26,8.06-1.21,11.77-1.18,2.98-3.54,6.53-6.6,7.79-1.3.53-2.69.82-4.02,1.26-.77.25-1.53.55-2.34.58-3.67.12-6.13-1.78-8-4.72-1.51-2.38-.59-4.44,1.25-6.37.21-.22.43-.45.72-.57.3-.12.64-.11.97-.08,2.3.22,4.52,1.02,6.83,1.15.19.01.4.01.56-.1.05-.04.09-.08.12-.13Zm2.93-29.21c2.36,1.29,4.88,1.27,7.45-.08,5.43-2.85,5.43-8.19.89-16.84-4.55-8.65-8.87-11.53-14.29-8.68-2.57,1.35-4.05,3.34-4.29,6.09l10.25,19.51Z"/>
      <path class="cls-1" d="m161.88,152c-2.66,0-5.29-.68-7.62-1.98-3.66-2.04-6.3-5.37-7.45-9.4l-.95-3.35c-1.17-4.09-.63-8.37,1.41-11.98l-6.6-23.16c-7.07-2.87-11.44-8.86-12.14-16.86-.38-4.35.41-10.98,6.31-17.9,4.37-5.12,9.77-8.6,15.61-10.06,2.24-.56,4.43-.84,6.52-.84,11.1,0,18.56,6.75,22.18,20.05.12.44.23.84.34,1.24l10.1,35.46c3.63,1.99,6.35,5.35,7.52,9.44l.95,3.35c2.37,8.31-2.47,16.99-10.78,19.36l-21.11,6.02c-1.4.4-2.84.6-4.29.6Z"/>
      <path class="cls-1" d="m161.88,146.33c-1.69,0-3.36-.43-4.86-1.26-2.32-1.29-4.03-3.45-4.75-6l-.95-3.35c-.97-3.39-.06-6.91,2.15-9.39l-8.16-28.64c-8.79-2.16-10.76-8.83-11.12-12.9-.28-3.27.35-8.3,4.97-13.73,3.6-4.22,7.98-7.07,12.67-8.23,1.79-.44,3.52-.67,5.15-.67,12.39,0,15.53,11.53,16.71,15.87.12.43.24.87.36,1.3l10.84,38.05c3.19.95,5.81,3.46,6.78,6.85l.95,3.35c1.51,5.31-1.57,10.84-6.88,12.36l-21.11,6.02c-.9.26-1.82.38-2.74.38Z"/>
      <path class="cls-1" d="m161.88,141.99c-.96,0-1.91-.24-2.76-.72-1.31-.73-2.28-1.95-2.7-3.4l-.95-3.35c-.75-2.65.5-5.43,2.93-6.63l-9.69-34c-2.71-.28-9.51-1.29-10.23-9.49-.31-3.55,1.02-7.1,3.96-10.54,3.01-3.53,6.61-5.89,10.42-6.84,1.44-.36,2.83-.54,4.1-.54,9.08,0,11.32,8.24,12.53,12.67.12.45.25.9.37,1.35l11.63,40.81c.18-.02.36-.03.54-.03,2.49,0,4.74,1.65,5.45,4.12l.95,3.35c.86,3.01-.89,6.15-3.9,7l-21.11,6.02c-.51.15-1.03.22-1.55.22Z"/>
      <path class="cls-1" d="m161.88,136.33l-.95-3.35c3.47-1.42,4.14-2.39,3.46-4.78,0,0-10.81-37.92-10.81-37.92-1.1-3.85-8.85.4-9.44-6.36-.21-2.35,1.09-4.58,2.62-6.37,1.98-2.32,4.51-4.28,7.47-5.02,7.76-1.93,8.6,3.98,10.18,9.54l4.95,17.38c2.4,8.43,4.8,16.85,7.2,25.28.68,2.39,1.68,2.88,5.46,2.23l.95,3.35-21.11,6.02Z"/>
      <path class="cls-1" d="m197.4,144.2c-13.6,0-24.2-9.01-25.78-21.92-.61-5.01.08-9.68,2.07-13.95-1.04-2.16-1.74-4.53-2.04-7.01-1.07-8.75,2.85-17.01,10.75-22.66,5.28-3.78,12.25-6.28,20.17-7.25,1.87-.23,3.72-.34,5.49-.34,15.91,0,27.37,9.59,29.18,24.42.1.83.17,1.78.27,3.22.01.18.03.36.04.54,2.87,1.07,5.44,2.85,7.47,5.2,1.9,2.2,3.24,4.79,4,7.7,1.49,5.71.45,11.58-2.92,16.52-7.02,10.31-21.38,12.34-22.99,12.54-1.4.17-2.77.26-4.08.26-2.39,0-4.68-.29-6.83-.86-3.54,1.77-7.19,2.9-10.88,3.35-1.32.16-2.64.24-3.92.24Z"/>
      <path class="cls-1" d="m197.4,138.53c-10.82,0-18.91-6.81-20.15-16.94-.65-5.35.61-9.75,2.97-13.36-1.55-2.1-2.59-4.69-2.94-7.6-.81-6.63,2.26-12.96,8.42-17.36,4.51-3.23,10.58-5.38,17.56-6.23,1.64-.2,3.26-.3,4.8-.3,13.06,0,22.09,7.45,23.55,19.44.08.69.15,1.6.24,2.97.12,1.75.24,3.29.36,4.65,3.31.32,6.35,1.87,8.5,4.37,1.33,1.54,2.27,3.36,2.81,5.43,1.07,4.1.32,8.33-2.12,11.9-5.71,8.39-18.45,10.03-18.99,10.1-1.17.14-2.31.22-3.39.22-2.71,0-5.19-.46-7.39-1.34-3.56,2.1-7.28,3.41-11.01,3.87-1.09.13-2.18.2-3.24.2Z"/>
      <path class="cls-1" d="m197.4,134.2c-8.52,0-14.89-5.28-15.85-13.13-.67-5.49,1.27-9.78,4.45-13.15-2.39-1.66-4.01-4.4-4.42-7.81-.61-5.01,1.81-9.86,6.64-13.32,3.92-2.81,9.3-4.69,15.56-5.45,1.47-.18,2.91-.27,4.28-.27,10.86,0,18.06,5.84,19.25,15.63.07.58.13,1.44.22,2.74.26,3.83.54,6.76.82,9,.83-.25,1.71-.39,2.58-.39,2.54,0,4.91,1.07,6.51,2.93.89,1.03,1.53,2.27,1.9,3.69.75,2.87.21,5.85-1.51,8.37-3.69,5.43-12.04,7.76-15.94,8.24-1,.12-1.96.18-2.86.18-3.33,0-5.8-.82-7.65-1.99-3.64,2.53-7.47,4.08-11.28,4.54-.92.11-1.83.17-2.71.17Z"/>
      <path class="cls-1" d="m199.42,128.41c-6.74.82-11.57-2.43-12.25-8.02-1.19-9.79,10.74-14.58,22.24-18.16l-.47-3.87c-.62-5.1-1.58-6.82-5.2-6.38-3.13.38-4.65,2.24-5.41,6.25-.73,3.6-2.85,5.36-5.81,5.72-2.71.33-4.89-1.07-5.31-4.53-.74-6.09,6.49-11.14,17.26-12.46,8.39-1.02,16.09,1.21,17.22,10.42.33,2.73.97,23.06,4.99,21.72,1.75-.59.72-4.07,2.98-5.11,1.16-.53,2.66-.28,3.5.69.35.4.57.9.7,1.42,1.49,5.73-8.51,9.05-12.64,9.55-4.28.52-7.8-.3-9.18-4.06-3.13,3.05-7.51,6.18-12.61,6.8Zm10.58-21.41c-6.5,2.13-10.7,4.65-10.15,9.17.37,3.04,2.6,4.19,5.07,3.89,2.47-.3,4.49-1.55,6.29-3.19l-1.2-9.87Z"/>
      <path class="cls-1" d="m274.98,146.53c-6.15,0-12.08-2.36-16.71-6.57-.51.05-1.03.08-1.55.08-.2,0-.4,0-.6-.01l-21.94-.85c-4.18-.16-8.05-1.94-10.9-5.01-2.84-3.07-4.32-7.07-4.16-11.25l.13-3.48c.16-4.25,2.01-8.16,5.06-10.95l.13-3.49c-2.83-3.02-4.37-7.06-4.21-11.31l.12-3.23c.22-5.72,3.53-10.86,8.65-13.41l12.93-6.47c2.16-1.08,4.59-1.65,7.01-1.65.2,0,.4,0,.6.01l4.64.18c1.73.07,3.44.42,5.05,1.05,2.13-.39,4.21-.59,6.2-.59.39,0,.78,0,1.17.02,17.46.67,28.3,12.32,27.63,29.68-.12,3.08-.42,6.09-.71,9-.13,1.28-.25,2.5-.35,3.68,3.51,3.95,5.21,9.42,4.51,14.95-1.31,10.33-10.31,18.74-20.94,19.55-.59.04-1.19.07-1.78.07h0Z"/>
      <path class="cls-1" d="m274.99,140.86c-5.62,0-11.07-2.63-14.83-7.1-1.08.4-2.23.61-3.44.61-.13,0-.26,0-.39,0l-21.94-.84c-2.65-.1-5.15-1.25-6.95-3.2-1.8-1.95-2.76-4.53-2.65-7.18l.13-3.48c.14-3.52,2.09-6.58,4.96-8.26l.34-8.87c-2.72-1.88-4.45-5.07-4.31-8.62l.12-3.23c.14-3.65,2.26-6.93,5.52-8.56l12.93-6.47c1.39-.7,2.92-1.06,4.47-1.06.13,0,.26,0,.39,0l4.64.18c1.63.06,3.2.52,4.59,1.32,2.35-.56,4.69-.86,6.88-.86.32,0,.63,0,.95.02,14.23.55,22.73,9.67,22.19,23.8-.11,2.9-.4,5.82-.68,8.66-.22,2.26-.44,4.45-.56,6.51,3.46,2.66,5.34,7.2,4.74,11.97-.98,7.72-7.75,14-15.75,14.61-.45.03-.9.05-1.35.05Z"/>
      <path class="cls-1" d="m274.99,136.53c-4.69,0-9.24-2.4-12.19-6.42-.56-.77-1.05-1.59-1.47-2.45-1.03,1.44-2.72,2.37-4.61,2.37-.07,0-.15,0-.22,0l-21.94-.84c-1.5-.06-2.92-.71-3.94-1.81-1.02-1.1-1.56-2.57-1.5-4.07l.13-3.48c.11-2.75,2.17-5,4.85-5.39l.56-14.6c-2.62-.59-4.53-2.97-4.42-5.75l.12-3.23c.08-2.07,1.28-3.93,3.13-4.85l12.93-6.47c.79-.39,1.66-.6,2.54-.6.07,0,.15,0,.22,0l4.64.18c1.46.06,2.83.67,3.85,1.71,2.65-.81,5.34-1.25,7.79-1.25.26,0,.52,0,.78.02,11.74.45,18.48,7.67,18.03,19.3-.11,2.77-.39,5.63-.67,8.39-.31,3.16-.64,6.39-.67,9.37,0,0,.01,0,.02,0,3.41,1.34,5.35,4.95,4.84,8.99-.72,5.72-5.79,10.38-11.78,10.83-.34.03-.68.04-1.02.04Zm-16.89-21.17c.31.07.6.16.88.27-.04-4.03.39-8.15.78-11.88.23-2.21.45-4.31.52-5.99-.51,0-1,.07-1.51.2l-.67,17.39Z"/>
      <path class="cls-1" d="m256.71,124.37l-21.94-.84.13-3.48c3.74-.27,4.68-.98,4.78-3.46l.76-19.62c.07-1.74-.48-2.51-1.97-2.56l-2.57-.1.12-3.23,12.93-6.47,4.64.18-.16,4.06c3.39-2.03,8.35-3.74,12.57-3.58,6.13.24,13,2.66,12.58,13.42-.26,6.77-1.68,14.39-1.27,21.02.05.77.44,1.57,1.14,1.89.74.33,1.65.06,2.4.36,1.09.43,1.44,1.84,1.29,3-.4,3.16-3.4,5.65-6.58,5.89s-6.32-1.5-8.2-4.08c-4.94-6.75-1.74-20.86-1.43-28.9.15-3.97-2.1-5.63-5.17-5.75-2.73-.11-5.17.71-7.55,2.2l-.88,22.76c-.1,2.48.7,3.26,4.5,3.82l-.13,3.48Z"/>
      <path class="cls-1" d="m312.3,147.1c-2.01,0-4.07-.17-6.11-.5-10.6-1.73-19.21-6.69-24.93-14.36-5.65-7.59-7.87-17.27-6.24-27.26,2.95-18.07,17.02-30.21,35.01-30.21,2.12,0,4.29.18,6.45.53,20.15,3.29,31.5,18.9,28.25,38.86.66,2.27.89,4.64.7,7.09-.67,8.57-7.04,14.25-10.1,16.98l-.22.2c-6.33,5.67-14.22,8.67-22.82,8.67h0Z"/>
      <path class="cls-1" d="m312.3,141.44c-1.71,0-3.46-.14-5.2-.43-9.12-1.49-16.48-5.69-21.29-12.15-4.73-6.34-6.57-14.5-5.19-22.96,2.49-15.22,14.31-25.45,29.42-25.45,1.82,0,3.68.15,5.54.46,17.07,2.79,26.32,15.49,23.57,32.37-.07.41-.16.82-.28,1.22.78,1.95,1.1,4.09.92,6.32-.49,6.3-5.52,10.79-8.22,13.2l-.22.19c-5.28,4.73-11.87,7.23-19.05,7.23Z"/>
      <path class="cls-1" d="m312.3,137.1c-1.48,0-2.99-.12-4.5-.37-7.99-1.3-14.39-4.92-18.52-10.46-4.02-5.39-5.58-12.38-4.38-19.67,2.13-13.05,12.24-21.82,25.14-21.82,1.59,0,3.21.13,4.84.4,14.7,2.4,22.36,12.9,19.99,27.4-.12.74-.39,1.44-.77,2.07,1.06,1.67,1.54,3.69,1.38,5.83-.36,4.57-4.38,8.16-6.79,10.31l-.22.2c-4.47,4.01-10.06,6.12-16.16,6.12Zm-3.72-23.08c-.12,1.85-.01,3.86.8,4.99.42.59,1.85,1.41,3.21,1.41.42,0,.59-.09.59-.09,0,0,.03-.07.04-.1,0-.07,0-.16,0-.25-.02-.63-.06-1.67.24-2.88.17-.69.44-1.42.86-2.14l-5.73-.94Z"/>
      <path class="cls-1" d="m303.84,107.51c-.2.72-.32,1.46-.43,2.11-.65,4.03-1.18,9.19,1.38,12.72,2.33,3.22,8.14,5.04,11.59,2.67,1.53-1.05,2.49-2.87,2.51-4.72,0-.61-.09-1.23.06-1.81.45-1.79,2.68-2.35,4.51-2.59,2.85-.36,6.65.38,6.35,4.15-.19,2.4-3.45,5.21-5.14,6.72-4.47,4-10.08,5.34-15.97,4.38-13.49-2.2-20.13-11.93-18.22-23.63,1.9-11.61,11.45-18.7,23.47-16.74,11.78,1.92,17.11,9.85,15.31,20.89l-25.43-4.15Zm14.43-3.02c.79-4.82-1.18-8.17-4.86-8.77-4.5-.73-6.89,1.56-8.46,6.59l13.33,2.18Z"/>
      <path class="cls-1" d="m355.99,156.36c-4.9,0-9.53-1.06-12.59-1.86-16.71-4.37-24.83-17.43-20.68-33.25l2.97-11.35c-2.1-3.61-2.67-7.81-1.61-11.84l.82-3.12c1.65-6.32,7.13-10.99,13.63-11.63,1.75-.17,2.31-.33,3.58-2.7,2.73-5.12,8.03-8.29,13.82-8.29,1.33,0,2.67.17,3.97.51l4.57,1.2c7.78,2.04,12.67,9.61,11.54,17.39,1.46,1.18,2.7,2.62,3.66,4.26,2.12,3.61,2.7,7.83,1.64,11.88l-1.34,5.13c-.71,2.72-2.11,5.12-3.99,7.02,0,0,0,0,0,0,5.5,5.98,6.91,14.78,3.61,22.42-2.37,5.48-6.88,9.82-12.7,12.21-2.99,1.23-6.3,1.9-9.84,2.01-.34.01-.69.02-1.04.02Z"/>
      <path class="cls-1" d="m355.99,150.69c-4.25,0-8.4-.96-11.16-1.68-13.79-3.61-20-13.45-16.63-26.33l3.64-13.92c-.47-.51-.88-1.08-1.24-1.69-1.34-2.29-1.72-5.02-1.04-7.58l.82-3.12c1.06-4.05,4.53-7.01,8.7-7.42,3.89-.38,5.99-1.87,8.03-5.67,1.77-3.32,5.2-5.29,8.82-5.29.84,0,1.69.11,2.53.33l4.57,1.19c5.34,1.4,8.54,6.86,7.14,12.21l-.64,2.47c2.2.79,4.06,2.33,5.25,4.36,1.34,2.29,1.72,5.02,1.04,7.58l-1.34,5.13c-1.18,4.49-5.23,7.47-9.67,7.47-.55,0-1.11-.05-1.67-.14l-.12.45c3.37.44,6.5,2.03,8.78,4.52,3.98,4.33,4.99,10.74,2.58,16.33-1.78,4.12-5.21,7.4-9.66,9.22-2.35.97-5,1.5-7.86,1.59-.29,0-.58.01-.87.01Z"/>
      <path class="cls-1" d="m355.99,146.36c-3.71,0-7.32-.82-10.06-1.54-15.51-4.06-15.14-14.93-13.54-21.05l4.36-16.66c-1-.49-1.84-1.26-2.41-2.23-.76-1.3-.97-2.84-.59-4.3l.82-3.12c.6-2.3,2.57-3.98,4.93-4.21,5.31-.52,8.73-2.9,11.42-7.95,1-1.88,2.95-3,5-3,.48,0,.96.06,1.44.19l4.57,1.19c3.03.79,4.84,3.89,4.05,6.92l-1.73,6.62,3.33.87c1.46.38,2.7,1.32,3.46,2.62.76,1.3.97,2.84.59,4.3l-1.34,5.13c-.67,2.55-2.96,4.24-5.48,4.24-.48,0-.96-.06-1.44-.19l-3.33-.87-1.58,6.02c-.19.74-.48,1.6-.82,2.59-.17.51-.44,1.31-.71,2.19,1.29-.59,2.72-.9,4.17-.9,2.88,0,5.61,1.18,7.5,3.24,2.78,3.03,3.5,7.72,1.79,11.68-1.33,3.08-3.93,5.54-7.33,6.94-1.87.77-4,1.19-6.34,1.27-.24,0-.49.01-.74.01Z"/>
      <path class="cls-1" d="m356.55,140.68c-3.11.09-6.45-.63-9.19-1.34-7.61-1.99-11.67-5.79-9.49-14.13l5.77-22.04-4.41-1.15.82-3.13c7.38-.72,12.34-4.31,15.87-10.92l4.57,1.2-3.17,12.1,8.82,2.31-1.34,5.13s-8.82-2.31-8.82-2.31l-3.01,11.51c-.78,2.97-4.8,12.06-1.28,14.12,1.23.72,2.84.62,4.08-.09,1.2-.69,2.06-1.88,3.29-2.54,1.72-.92,4.05-.53,5.38.91,1.35,1.46,1.55,3.77.76,5.59s-2.44,3.19-4.28,3.94c-1.33.55-2.82.8-4.36.84Z"/>
    </g>
    <path class="cls-1" d="m132.09,375.51c-6.48,0-12.96-2.11-18.74-6.09-7.25-5-12.13-12.12-13.73-20.04-1.62-8.05.18-16.4,5.09-23.51,5.9-8.56,15.01-13.47,24.98-13.47,6.48,0,12.97,2.11,18.75,6.1,7.24,4.99,12.12,12.1,13.73,20.01,1.63,8.05-.16,16.39-5.05,23.48-5.92,8.6-15.05,13.52-25.03,13.52Z"/>
    <path class="cls-1" d="m132.09,369.85c-5.32,0-10.69-1.76-15.52-5.09-6.04-4.16-10.08-10.02-11.39-16.5-1.32-6.53.17-13.34,4.2-19.17,4.83-7,12.23-11.02,20.32-11.02,5.33,0,10.7,1.76,15.54,5.1,6.03,4.15,10.07,10,11.39,16.47,1.33,6.52-.15,13.32-4.16,19.14-4.85,7.04-12.27,11.07-20.37,11.07Z"/>
    <path class="cls-1" d="m132.09,365.51c-4.44,0-8.96-1.5-13.07-4.33-5.18-3.57-8.5-8.34-9.6-13.79-1.08-5.37.17-11,3.52-15.86,4.01-5.81,10.11-9.15,16.75-9.15,4.45,0,8.97,1.5,13.08,4.33,5.17,3.57,8.5,8.33,9.6,13.77,1.09,5.36-.15,10.98-3.48,15.82-4.03,5.85-10.15,9.2-16.8,9.2Zm2.08-26.3c-.56.37-1.79,1.42-3.8,4.34-2,2.9-2.56,4.45-2.72,5.12.58-.39,1.82-1.46,3.82-4.36,2.01-2.92,2.55-4.45,2.7-5.1Z"/>
    <path class="cls-1" d="m144.22,353.1c-5.04,7.32-13.84,9.03-21.98,3.42-8.14-5.61-9.67-14.44-4.63-21.76,5.01-7.27,13.81-8.98,21.94-3.37,8.14,5.61,9.67,14.44,4.67,21.71Zm-8.09-5.57c4.16-6.04,5.24-10.35,1.3-13.06s-7.58-.17-11.74,5.87c-4.16,6.04-5.28,10.4-1.34,13.12,3.94,2.72,7.62.12,11.78-5.92Z"/>
    <path class="cls-1" d="m169.32,409.83c-11.15,0-20.17-7.23-21.94-17.58-.27-1.56-.4-3.17-.39-4.79l-8.5-3.64c-7.94-3.4-11.64-12.63-8.24-20.57l1.03-2.4c1.39-3.25,3.82-5.9,6.87-7.57-.9-3.37-.66-6.93.74-10.2l.95-2.23c2.25-5.26,7.19-8.87,12.88-9.43l10.79-1.05c.5-.05,1.01-.07,1.52-.07,2.13,0,4.21.43,6.17,1.27l3.2,1.37c1.25.54,2.41,1.22,3.47,2.05,1.8.4,3.51.94,5.1,1.62,5.77,2.47,10.08,6.13,12.81,10.88,3.79,6.6,4.02,14.58.64,22.47-1.06,2.47-2.23,4.86-3.36,7.18-1.15,2.34-2.32,4.74-3.22,6.93.78,2.45,1.04,5.05.77,7.66-.62,5.91-3.95,11.35-8.92,14.55-3.61,2.33-7.89,3.55-12.38,3.55Z"/>
    <path class="cls-1" d="m169.32,404.16c-8.34,0-15.06-5.29-16.35-12.86-.44-2.58-.38-5.08,0-7.45l-12.24-5.24c-5.08-2.17-7.43-8.05-5.26-13.13l1.03-2.4c1.19-2.77,3.49-4.75,6.19-5.6l1.64-3.83c-.11-.22-.21-.45-.3-.69-.99-2.46-.95-5.22.09-7.65l.95-2.23c1.44-3.36,4.59-5.66,8.22-6.02l10.79-1.05c.32-.03.65-.05.97-.05,1.35,0,2.69.27,3.94.81l3.2,1.37c1.18.5,2.23,1.22,3.12,2.11,1.74.29,3.61.77,5.44,1.56,4.61,1.98,8.02,4.83,10.12,8.5,2.04,3.55,3.76,9.46.35,17.41-1,2.33-2.14,4.66-3.24,6.92-1.57,3.2-3.17,6.48-4.2,9.46,1.03,2.14,1.46,4.56,1.2,7.04-.44,4.22-2.82,8.1-6.35,10.37-2.69,1.73-5.91,2.65-9.31,2.65Z"/>
    <path class="cls-1" d="m169.32,399.83c-6.18,0-11.15-3.81-12.08-9.26-.55-3.23-.12-6.36.75-9.3-.14-.05-.28-.1-.41-.16l-15.14-6.48c-2.88-1.23-4.21-4.56-2.98-7.44l1.03-2.4c.91-2.13,3-3.44,5.21-3.44h.05l3.49-8.15c-.51-.52-.92-1.15-1.19-1.84-.56-1.4-.54-2.96.05-4.34l.95-2.23c.81-1.9,2.6-3.21,4.66-3.41l10.79-1.05c.18-.02.37-.03.55-.03.77,0,1.52.15,2.23.46l3.2,1.37c1.07.46,1.96,1.23,2.57,2.2,1.85.19,3.97.61,6,1.47,3.73,1.6,6.44,3.84,8.07,6.67,1.55,2.7,2.83,7.24.12,13.55-.96,2.23-2.07,4.51-3.15,6.71-1.96,4-3.98,8.13-5.01,11.92,1.25,1.69,1.83,3.83,1.6,6.04-.31,2.92-1.95,5.61-4.39,7.18-1.99,1.28-4.4,1.96-6.96,1.96Z"/>
    <path class="cls-1" d="m159.8,375.9l-15.14-6.48,1.03-2.4c2.69.82,3.54.57,4.28-1.14l5.8-13.54c.51-1.2.33-1.88-.69-2.33l-1.77-.76.95-2.23,10.8-1.06,3.2,1.37-1.2,2.8c2.92-.51,6.85-.38,9.77.87,4.23,1.81,8.39,5.35,5.21,12.78-2.85,6.65-7.28,13.9-8.8,20.91-.16.74-.26,1.57.17,2.2.23.33.59.56.88.85,1.49,1.47.7,4.23-1.06,5.37-3.43,2.21-9.64.92-10.39-3.48-1.09-6.38,3.44-13.01,5.76-18.6,1.56-3.75,3.2-7.47,4.8-11.21,1.17-2.74.04-4.51-2.07-5.42-1.89-.81-3.81-.89-5.88-.49l-6.73,15.71c-.73,1.71-.38,2.47,2.12,3.88l-1.03,2.4Z"/>
    <path class="cls-1" d="m227.47,412.8c-2.63,0-5.16-.29-7.53-.86-2.85-.69-5.4-1.72-7.62-3.07-.59.03-1.19.05-1.77.05-2.26,0-4.49-.26-6.62-.78-6.08-1.47-11.09-4.7-14.47-9.35-3.88-5.34-5.16-11.88-3.58-18.41.9-3.73,2.56-7,4.93-9.74,0-1.65.2-3.31.6-4.97,1.89-7.84,9.44-16.99,24.5-16.99,3.15,0,6.45.41,9.8,1.22,6.47,1.56,11.67,4.44,15.46,8.57,5.51,6,7.45,13.88,5.44,22.17-.05.2-.13.51-.23.91,2.67,2.89,4.32,6.58,4.66,10.58.67,7.93-3.97,15.34-11.56,18.43-4.51,1.84-9.02,2.23-12,2.23Z"/>
    <path class="cls-1" d="m227.47,407.13c-2.18,0-4.27-.24-6.2-.7-3.19-.77-5.61-1.98-7.44-3.4-1.11.15-2.2.22-3.28.22-1.81,0-3.59-.21-5.29-.62-4.76-1.15-8.64-3.63-11.22-7.17-2.89-3.97-3.83-8.85-2.65-13.75.72-2.99,2.24-6.24,5.26-8.92-.29-1.86-.2-3.82.27-5.79,1.47-6.11,7.24-12.65,18.99-12.65,2.7,0,5.55.36,8.47,1.06,5.35,1.29,9.6,3.61,12.62,6.9,4.19,4.57,5.65,10.61,4.11,17.01-.06.27-.19.75-.36,1.39-.28,1.04-.52,1.97-.73,2.82,3.03,2.04,5.06,5.34,5.38,9.09.46,5.44-2.77,10.55-8.05,12.7-3.66,1.49-7.38,1.81-9.86,1.81Z"/>
    <path class="cls-1" d="m227.47,402.8c-1.81,0-3.6-.2-5.18-.58-3.41-.82-5.63-2.24-7.08-3.82-1.58.35-3.14.52-4.66.52s-2.91-.17-4.28-.5c-3.75-.9-6.76-2.81-8.73-5.51-2.13-2.93-2.82-6.55-1.94-10.18.96-4,3.25-6.6,6.01-8.29-.68-1.49-1.15-3.65-.48-6.42,1.39-5.76,7.05-9.33,14.78-9.33,2.36,0,4.87.32,7.46.94,4.5,1.09,8.02,2.98,10.44,5.62,3.19,3.47,4.28,8.11,3.09,13.06-.06.25-.18.7-.34,1.29-.72,2.7-1.22,4.77-1.57,6.38,3.3.82,5.8,3.7,6.08,7.01.3,3.49-1.91,6.92-5.37,8.33-2.35.96-5.27,1.48-8.23,1.49Z"/>
    <path class="cls-1" d="m207.6,392.91c-4.95-1.19-7.48-4.74-6.49-8.85,1.73-7.19,11.37-7.42,20.39-6.9l.68-2.84c.9-3.74.68-5.2-1.98-5.85-2.29-.55-3.85.35-5.44,2.97-1.46,2.33-3.41,3.01-5.58,2.49-1.99-.48-3.15-2.04-2.54-4.57,1.08-4.47,7.48-6.12,15.39-4.21,6.16,1.48,10.98,5.08,9.35,11.84-.47,1.93-4.71,16.46-1.79,15.99.51-.08.89-.5,1.3-.83.75-.6,1.77-.91,2.7-.68s1.74,1.04,1.82,2c.1,1.14-.81,2.17-1.87,2.6-2.87,1.17-6.94,1.36-9.93.64-3.14-.76-5.4-2.26-5.38-5.26-3,1.32-6.9,2.36-10.64,1.46Zm13.05-12.25c-5.12-.21-8.74.45-9.54,3.77-.54,2.24.72,3.63,2.54,4.06,1.81.44,3.56.09,5.25-.59l1.75-7.25Z"/>
    <g>
      <path class="cls-1" d="m260.38,477.26c-9.58,0-18.66-4.93-23.71-12.88-6.81-10.71-5.47-25.42,3.18-34.97,3.85-4.25,8.61-6.89,13.76-7.63.93-.13,1.88-.2,2.82-.2,2.57,0,5.12.5,7.49,1.46l9.56-9.93c-.14-4.18,1.4-8.26,4.38-11.36l2.24-2.33c2.94-3.05,7.05-4.8,11.29-4.8,1.4,0,2.79.19,4.14.56l14.01,3.84c2.52.69,4.85,2.01,6.74,3.83l3.34,3.22c1.06,1.02,1.96,2.16,2.68,3.42,1.79,1.17,3.49,2.52,5.07,4.05,6.93,6.67,10.51,15.47,10.08,24.78-.41,8.71-4.24,17.07-11.09,24.18-7.54,7.84-16.58,11.98-26.13,11.98-6.78,0-13.31-2.12-19.13-6.19-2.75,2.47-5.79,4.76-9.3,6.43-3.55,1.69-7.4,2.55-11.42,2.55h0Z"/>
      <path class="cls-1" d="m260.38,471.59c-7.65,0-14.91-3.93-18.92-10.25-5.46-8.6-4.37-20.43,2.6-28.13,2.95-3.26,6.53-5.27,10.36-5.82.66-.09,1.34-.14,2.02-.14,3.17,0,6.18,1.04,8.57,2.84l14.45-15.01c-.82-3.24,0-6.81,2.49-9.39l2.24-2.33c1.91-1.98,4.52-3.06,7.2-3.06.88,0,1.77.12,2.64.36l14.02,3.84c1.61.44,3.09,1.28,4.3,2.44l3.34,3.22c.99.95,1.76,2.08,2.28,3.32,1.94,1.12,3.77,2.51,5.48,4.15,5.74,5.52,8.71,12.78,8.35,20.43-.34,7.32-3.63,14.41-9.51,20.51-6.45,6.7-14.08,10.24-22.05,10.24h0c-7.02,0-13.73-2.78-19.46-8.06-3.07,3.09-6.81,6.66-11.4,8.84-2.79,1.33-5.81,2-8.99,2Z"/>
      <path class="cls-1" d="m260.38,467.26c-6.19,0-12.04-3.16-15.27-8.24-4.44-6.99-3.53-16.62,2.15-22.9,2.26-2.5,4.95-4.04,7.76-4.44.46-.07.94-.1,1.41-.1,3.6,0,6.88,1.91,8.49,4.84.08-.08,19.67-20.43,19.67-20.43-1.62-2.18-1.47-5.28.48-7.3l2.24-2.33c1.08-1.12,2.56-1.74,4.08-1.74.5,0,1,.07,1.5.2l14.02,3.84c.92.25,1.75.73,2.44,1.38l3.34,3.22c.89.86,1.47,1.98,1.67,3.19,2.17,1.04,4.22,2.48,6.09,4.28,4.83,4.65,7.32,10.72,7.03,17.11-.29,6.25-3.16,12.37-8.3,17.71-5.62,5.83-12.16,8.92-18.93,8.92h0c-6.13,0-12.03-2.56-17.06-7.42-.85-.82-1.62-1.66-2.31-2.54-.24.25-.49.49-.73.74-.49.48-.99.99-1.5,1.51-3.16,3.2-6.73,6.83-11.11,8.91-2.2,1.05-4.6,1.58-7.13,1.58Zm32.33-25.08c.13.22.32.47.61.75.5.48.91.73,1.21.73.36,0,2.41-.24,7.03-5.04,3.54-3.68,4.43-5.71,4.64-6.59.11-.46.19-.79-.75-1.7-.31-.29-.56-.48-.76-.59l-11.98,12.44Z"/>
      <path class="cls-1" d="m261.11,442.69c.62.8,1.62,1.32,2.62,1.4,2.26.18,4.05-2.47,5.49-3.97,2.78-2.89,5.56-5.78,8.34-8.67,4.42-4.59,8.84-9.18,13.26-13.77,1.21-1.25,1.31-2.19.23-3.23l-1.91-1.84,2.24-2.33,14.02,3.84,3.34,3.22-2.64,2.74c3.64.17,7.18,1.62,10.4,4.73,7.46,7.18,7.14,17.91-1.43,26.8-8.62,8.95-19.33,9.68-27.98,1.35-2.69-2.59-4.2-5.31-4.78-8.17-2.06,2.14-4.08,4.34-6.19,6.43-3.21,3.18-6.93,7.37-11.05,9.33-5.22,2.48-12.08.29-15.18-4.58-3.1-4.88-2.31-11.77,1.57-16.05,1.16-1.28,2.64-2.39,4.36-2.63s3.66.58,4.28,2.2c.29.75.28,1.58.54,2.34.11.31.27.6.46.86Zm25.86-2.72c-.48,2.64.33,5.03,2.42,7.04,4.42,4.25,9.48,2.57,16.26-4.47s8.15-12.05,3.74-16.3c-2.09-2.01-4.45-2.79-7.13-2.15l-15.29,15.88Z"/>
      <path class="cls-1" d="m324.06,500.29c-3.49,0-6.92-1.18-9.67-3.34l-17.28-13.55c-3.29-2.58-5.39-6.29-5.89-10.45-.5-4.16.64-8.26,3.22-11.55l2.15-2.74c2.61-3.33,6.37-5.42,10.52-5.9l9.15-11.68s4.14-5.26,4.62-5.88c-1.46-5.74.43-10.79,1.16-12.41,2.96-6.63,9.52-11.27,17.13-12.11.88-.1,1.79-.15,2.71-.15,3.43,0,6.35.7,8.28,1.17,3.22.77,7.63,1.84,12.05,4.67,7.23,4.64,9.44,10.63,10.03,14.83,1.33,9.64-4.67,16.41-7.89,20.05-.52.58-1.02,1.16-1.3,1.51l-21.29,27.16c.53,4.11-.59,8.28-3.22,11.62l-2.15,2.74c-2.58,3.3-6.29,5.39-10.45,5.89-.63.08-1.26.11-1.89.11Z"/>
      <path class="cls-1" d="m324.06,494.62c-2.23,0-4.4-.74-6.17-2.13l-17.28-13.55c-2.09-1.64-3.44-4.04-3.76-6.67-.32-2.63.42-5.29,2.06-7.37l2.15-2.74c1.96-2.5,4.89-3.83,7.88-3.83.33,0,.66.02.98.05l10.81-13.79,2.84-3.61c1.25-1.58,2.49-3.17,3.73-4.76-2.53-4.91-.64-9.87-.08-11.11,2.14-4.8,6.96-8.17,12.58-8.79.68-.08,1.38-.11,2.09-.11,2.76,0,5.18.58,6.95,1.01,2.98.72,6.69,1.61,10.31,3.93,5.42,3.48,7.05,7.81,7.47,10.83.98,7.06-3.53,12.15-6.52,15.52-.58.66-1.13,1.28-1.52,1.77l-22.95,29.27c1.11,3.13.62,6.73-1.56,9.5l-2.15,2.74c-1.64,2.09-4.03,3.44-6.67,3.76-.4.05-.8.07-1.21.07Z"/>
      <path class="cls-1" d="m324.06,490.29c-1.26,0-2.49-.42-3.5-1.21l-17.28-13.55c-1.18-.93-1.95-2.29-2.13-3.78-.18-1.49.24-3,1.17-4.18l2.15-2.74c1.11-1.42,2.77-2.17,4.47-2.17.89,0,1.79.21,2.62.65l12.58-16.05,2.83-3.6c1.85-2.35,3.71-4.71,5.54-7.08.06-.08.13-.16.2-.25-3.41-3.4-2.51-7.25-1.53-9.46,1.52-3.4,5.01-5.8,9.1-6.25.52-.06,1.06-.09,1.61-.09,2.25,0,4.29.49,5.94.89,2.67.64,5.99,1.44,8.99,3.37,3.24,2.08,5.09,4.7,5.52,7.78.7,5.09-2.72,8.95-5.47,12.05-.63.71-1.22,1.38-1.69,1.97l-24.72,31.53c1.8,2.03,1.91,5.08.21,7.25l-2.15,2.74c-.93,1.18-2.29,1.95-3.78,2.13-.23.03-.46.04-.68.04Z"/>
      <path class="cls-1" d="m306.78,471.07l2.15-2.74c3.19,1.98,4.37,1.95,5.9,0,4.59-5.86,9.18-11.71,13.77-17.57,2.8-3.57,5.62-7.12,8.39-10.71,1.16-1.5,3.13-3.15,2.78-5-.38-2-5.17-1.95-3.42-5.86.77-1.72,2.67-2.72,4.55-2.93s3.76.24,5.6.68c2.51.6,5.08,1.23,7.25,2.63,6.81,4.37.36,9.21-3.04,13.54l-10.86,13.86c-5.01,6.4-10.03,12.79-15.04,19.19-1.53,1.96-1.34,3.05,1.4,5.73l-2.15,2.74-17.28-13.55Z"/>
      <path class="cls-1" d="m372.08,525.63c-7.37,0-17.37-2.64-23.84-9.97-3.84-.37-7.45-1.32-10.77-2.84-6.44-2.96-11.28-7.59-13.98-13.4-3.05-6.57-3.03-13.89.06-20.63,1.47-3.2,4.18-7.4,9.04-10.65.24-2.43.9-4.86,1.97-7.18,3.95-8.6,12.66-13.74,23.3-13.74,5.86,0,12.33,1.55,18.71,4.48,17.12,7.86,23.91,23.41,16.9,38.68-.44.95-.9,1.86-1.37,2.74,2.22,2.58,3.68,5.74,4.15,9.16.62,4.51-.11,11.2-7.17,17.45-4.35,3.85-10.22,5.89-16.99,5.89h0Z"/>
      <path class="cls-1" d="m372.09,519.96c-6.01,0-14.87-2.25-20.06-8.6-.32-.39-.62-.8-.91-1.21-4.09-.09-7.89-.93-11.28-2.49-5.2-2.39-9.08-6.07-11.2-10.64-2.34-5.04-2.32-10.68.07-15.87,1.34-2.91,4.09-7.08,9.51-9.72-.23-2.61.25-5.38,1.5-8.11,3.05-6.63,9.66-10.43,18.15-10.43,5.05,0,10.7,1.37,16.34,3.96,14.26,6.55,19.79,18.78,14.11,31.16-1.07,2.32-2.32,4.43-3.45,6.31,3.08,1.9,5.25,5.01,5.77,8.74.63,4.56-1.16,8.74-5.32,12.43-3.3,2.92-7.87,4.47-13.23,4.47Zm-15.04-25.06"/>
      <path class="cls-1" d="m372.09,515.63c-5.06,0-12.48-1.84-16.71-7.01-.73-.89-1.32-1.84-1.78-2.84-.58.03-1.16.05-1.73.05-3.75,0-7.2-.71-10.23-2.1-4.26-1.95-7.4-4.9-9.08-8.53-1.8-3.87-1.77-8.22.08-12.24,1.53-3.34,4.59-7.16,10.67-8.84-1.17-2.65-1.12-5.82.34-8.99,2.31-5.03,7.49-7.91,14.21-7.91,4.43,0,9.46,1.23,14.54,3.57,12.05,5.54,16.64,15.28,11.98,25.42-1.04,2.27-2.27,4.31-3.46,6.28-.87,1.44-1.7,2.82-2.4,4.2,4.08.37,7.3,3.19,7.83,6.97.63,4.57-2.78,7.6-3.9,8.59-2.49,2.21-6.08,3.38-10.36,3.38Z"/>
      <path class="cls-1" d="m344.01,498.58c-6.18-2.84-8.57-8.13-6.22-13.25,4.11-8.96,16.79-6.78,28.46-3.8l1.62-3.54c2.14-4.67,2.23-6.64-1.09-8.16-2.86-1.31-5.13-.53-7.89,2.49-2.51,2.68-5.24,3.07-7.95,1.82-2.48-1.14-3.6-3.48-2.15-6.64,2.56-5.57,11.37-6.08,21.23-1.56,7.68,3.53,13.07,9.47,9.19,17.9-1.99,4.34-5.02,8.14-6.82,12.58-.67,1.64-2.28,4.9-1.59,6.74,1.37,3.64,2.38.64,5.22-.54,1.79-.75,4.43-.1,4.7,1.82.2,1.42-.97,2.62-2.04,3.57-5.31,4.71-22.23.53-20.37-8.61-4.27.96-9.63,1.32-14.3-.82Zm20.23-12.68c-6.65-1.6-11.55-1.66-13.45,2.48-1.28,2.79.02,4.93,2.28,5.97,2.26,1.04,4.63,1.03,7.03.58l4.15-9.03Z"/>
      <path class="cls-1" d="m406.3,542.51c-2.22,0-4.46-.14-6.45-.4-7.82-1.04-13.74-3.73-18.11-8.22-3.8-3.92-8.02-10.95-6.52-22.22l1.54-11.62c-2.49-3.26-3.62-7.39-3.06-11.56l.43-3.2c.86-6.47,5.72-11.79,12.09-13.22,1.71-.38,2.25-.61,3.21-3.12,2.31-6.02,8.19-10.06,14.63-10.06.7,0,1.39.05,2.08.14l4.67.62c7.97,1.06,13.76,7.97,13.6,15.83,1.59.99,3.01,2.27,4.16,3.77,2.54,3.32,3.64,7.44,3.09,11.59l-.7,5.26c-.43,3.27-1.87,6.21-3.98,8.5,2.95,2.48,5.21,5.8,6.35,9.63,2.65,8.94-1.13,18.79-9.18,23.95-2.94,1.88-6.37,3.12-10.5,3.79-2.28.37-4.76.56-7.35.56Z"/>
      <path class="cls-1" d="m406.3,536.84c-1.98,0-3.96-.12-5.71-.36-6.51-.86-11.34-3.01-14.79-6.55-2.93-3.02-6.17-8.5-4.97-17.52l1.89-14.26c-2.49-2.13-3.88-5.43-3.41-8.92l.43-3.2c.55-4.15,3.63-7.52,7.72-8.44,3.82-.86,5.71-2.59,7.26-6.62,1.5-3.9,5.24-6.42,9.33-6.42.44,0,.88.03,1.32.09l4.68.62c5.47.73,9.32,5.75,8.6,11.23l-.33,2.53c2.28.51,4.32,1.81,5.75,3.68,1.61,2.11,2.32,4.77,1.97,7.4l-.7,5.26c-.67,5.03-4.96,8.69-9.9,8.69-.33,0-.65-.02-.99-.05-.09.5-.18,1-.26,1.51,6.29.07,11.92,4.3,13.71,10.34,1.94,6.53-.86,13.75-6.8,17.56-2.27,1.45-5,2.42-8.34,2.97-1.98.32-4.15.48-6.44.48Z"/>
      <path class="cls-1" d="m406.3,532.51c-1.79,0-3.57-.11-5.14-.32-5.5-.73-9.51-2.46-12.25-5.28-3.29-3.39-4.56-8.08-3.78-13.94l2.27-17.07c-2.51-.85-4.15-3.39-3.79-6.11l.43-3.2c.31-2.35,2.06-4.26,4.37-4.78,5.21-1.17,8.3-3.95,10.35-9.3.85-2.21,2.97-3.64,5.29-3.64.25,0,.5.02.75.05l4.68.62c3.1.41,5.29,3.26,4.87,6.37l-.9,6.78,3.41.45c1.49.2,2.84.98,3.76,2.17.91,1.19,1.32,2.7,1.12,4.19l-.7,5.26c-.38,2.85-2.81,4.92-5.61,4.92-.25,0-.5-.02-.75-.05l-3.72-.49c-.58,2.94-1.6,8.27-1.92,12.13.33-.21.68-.4,1.06-.58,1.23-.58,2.55-.88,3.93-.88,4.38,0,8.47,3.04,9.71,7.24,1.37,4.62-.73,9.95-4.99,12.69-1.76,1.13-3.95,1.89-6.7,2.34-1.75.28-3.69.43-5.75.43Z"/>
      <path class="cls-1" d="m411.14,526.48c-3.18.52-6.84.4-9.24.09-7.8-1.03-12.3-4.31-11.16-12.85l3-22.58-4.52-.6.43-3.2c7.24-1.63,11.72-5.8,14.4-12.8l4.68.62-1.65,12.4,9.03,1.2-.7,5.26s-9.03-1.2-9.03-1.2c-.59,4.43-5.74,23.97-1.26,26.02,1.35.62,3.01.33,4.24-.51,1.11-.76,1.93-1.94,3.15-2.52,2.21-1.04,5.09.51,5.78,2.85s-.56,4.98-2.62,6.3c-1.16.75-2.78,1.23-4.54,1.51Z"/>
      <path class="cls-1" d="m447.88,539.17c-16.81,0-29.96-10.27-34.32-26.81-5.31-20.15,5.54-38.65,25.78-43.98,3.49-.92,6.95-1.39,10.27-1.39,15.22,0,27.24,9.73,31.36,25.39.14.54.25,1.08.34,1.63.63.83,1.2,1.73,1.69,2.66,3.68,7.07,2.77,15.75-2.64,25.13-4.56,7.9-11.96,13.39-21.4,15.88-3.74.99-7.47,1.48-11.09,1.48Z"/>
      <path class="cls-1" d="m447.88,533.5c-14.12,0-25.17-8.65-28.83-22.58-4.47-16.98,4.67-32.56,21.74-37.05,3.03-.8,6-1.2,8.83-1.2,12.71,0,22.39,7.91,25.88,21.17.22.83.33,1.66.33,2.48.85.88,1.57,1.88,2.15,3,3.47,6.65.54,14.37-2.52,19.67-3.79,6.56-9.99,11.14-17.93,13.23-3.27.86-6.51,1.3-9.64,1.3Z"/>
      <path class="cls-1" d="m447.88,529.17c-12.06,0-21.5-7.42-24.65-19.36-3.83-14.55,4.02-27.91,18.66-31.76,2.67-.7,5.26-1.06,7.72-1.06,10.62,0,18.73,6.71,21.69,17.94.28,1.08.24,2.16-.07,3.15,1.54,1.02,2.43,2.31,2.91,3.23,2.56,4.9.09,11.14-2.43,15.5-3.2,5.54-8.48,9.42-15.28,11.21-2.91.77-5.78,1.16-8.54,1.16Zm.01-22.21c.64,1.7,1.53,3.45,2.72,4.2.22.14,1.1.43,2.24.43h0c.43,0,.77-.04,1.02-.1,0-.19-.03-.45-.08-.76l-.08-.39c-.2-1.01-.5-2.54-.19-4.32.03-.19.07-.38.12-.57l-5.74,1.51Z"/>
      <path class="cls-1" d="m440.91,502.93c.11.74.3,1.46.47,2.1,1.03,3.9,2.6,8.64,6.21,10.91,2.94,1.86,9.48,2.03,11.29-1.44.75-1.44.76-3.17.48-4.77-.16-.92-.42-1.84-.26-2.76.14-.81.6-1.54,1.12-2.18,1.38-1.66,3.47-2.88,5.62-2.7,6.49.56,2.84,8.58.95,11.86-2.58,4.48-6.88,7.26-11.82,8.56-13.22,3.48-23.24-2.7-26.26-14.16-3-11.38,2.84-21.74,14.62-24.84,11.54-3.04,19.64,2.03,22.49,12.84l-24.92,6.56Zm11.95-8.63c-1.24-4.73-4.41-6.98-8.01-6.03-4.41,1.16-5.66,4.23-5.05,9.47l13.06-3.44Z"/>
    </g>
  </g>
  <path class="cls-7" d="m465.8,283.05c-9.94,70.86-87.38,94.54-193.19,79.69-105.81-14.85-169.24-52.95-159.29-123.81,9.94-70.86,80.7-100.82,186.5-85.97,105.81,14.85,175.92,59.23,165.98,130.09Z"/>
  <path class="cls-2" d="m442.05,279.72c-8.6,61.29-75.58,81.77-167.1,68.93-91.52-12.84-146.38-45.8-137.78-107.09,8.6-61.29,69.8-87.2,161.32-74.36,91.52,12.84,152.16,51.23,143.56,112.52Z"/>
  <g>
    <path class="cls-5" d="m422.98,453.34c-12.6.95-56.85-3.23-85.72-52.76-1.31-2.22-2.57-4.52-3.8-6.92-3.92-7.66-7.93-14.18-12.01-19.75-35.26-48.45-73.69-25.7-78.56-69.24-3.82-33.91,17.66-61.56,52.8-76.52,13.99-5.95,30.32-9.01,47.4-9.5,36.13-1.08,75.53,9.28,102.83,27.67,13.44,9.03,23.95,19.98,29.73,32.48,39.86,86.2,10.7,169.73-52.67,174.54Z"/>
    <path class="cls-4" d="m344.71,257.79c-9.6,10.76-29.9,1.08-44.17,15.64-.78.78-10.7,11.18-8.63,22.62,2.76,15.19,23.57,15.19,32.33,29.63,7.34,12.11,4.96,32.31-2.79,48.24-35.26-48.45-73.69-25.7-78.56-69.24-3.82-33.91,17.66-61.56,52.8-76.52,13.99-5.95,30.32-9.01,47.4-9.5,8.84,23.21,6.37,33.85,1.62,39.12Z"/>
    <path class="cls-4" d="m422.98,453.34c-12.6.95-56.85-3.23-85.72-52.76,4.01-23.09,17.54-44,31.17-46.34,13.59-2.34,22.54,14.54,60.33,24.23,15.17,3.9,20.93,3.02,25.32.55,14.12-7.96,19.1-35.37,8.63-48.49-11.18-13.99-32.58-2.49-45.26-17.24-9.64-11.23-8.21-30.6-1.6-43.09,6.01-11.44,17.62-19.56,30.07-23.87,13.44,9.03,23.95,19.98,29.73,32.48,39.86,86.2,10.7,169.73-52.67,174.54Z"/>
    <path class="cls-4" d="m331.78,292.28c2.9-8.67,22.43-3.77,28.56-15.62,4.58-8.86-4.16-15.79.54-26.4,3.99-9.01,15.89-16.66,25.86-13.47,6.72,2.15,12.94,9.33,11.85,15.09-1.19,6.29-10.06,5.26-16.16,14.01-4.64,6.65-5.95,16.49-3.23,24.25,4.09,11.67,15.15,12.53,15.62,22.09.25,5-2.53,9.81-5.93,12.39-8.22,6.25-21.25.36-28.02-2.69-14.12-6.38-32.1-20.65-29.09-29.63Z"/>
  </g>
  <g>
    <path class="cls-6" d="m124.27,172.42c.06-.1.1-.22.13-.34,1.07-4.33-.82-8.5-2.79-12.26-4.78-9.1-9.56-18.2-14.34-27.29-.81-1.54-1.67-1.93-2.99-1.24l-2.35,1.23-1.5-2.86,8.06-12.09,4.11-2.16,1.77,3.37c1.3-3.4,3.8-6.3,7.76-8.38,9.17-4.82,19.25-1.13,24.99,9.8,5.78,11,3.1,21.4-7.54,26.98-3.3,1.73-6.36,2.31-9.26,1.96.68.08,2.94,5.69,3.41,6.49,1.15,1.96,1.88,3.95,2.26,6.21.67,3.94.26,8.06-1.21,11.77-1.18,2.98-3.54,6.53-6.6,7.79-1.3.53-2.69.82-4.02,1.26-.77.25-1.53.55-2.34.58-3.67.12-6.13-1.78-8-4.72-1.51-2.38-.59-4.44,1.25-6.37.21-.22.43-.45.72-.57.3-.12.64-.11.97-.08,2.3.22,4.52,1.02,6.83,1.15.19.01.4.01.56-.1.05-.04.09-.08.12-.13Zm2.93-29.21c2.36,1.29,4.88,1.27,7.45-.08,5.43-2.85,5.43-8.19.89-16.84-4.55-8.65-8.87-11.53-14.29-8.68-2.57,1.35-4.05,3.34-4.29,6.09l10.25,19.51Z"/>
    <path class="cls-6" d="m161.88,136.33l-.95-3.35c3.47-1.42,4.14-2.39,3.46-4.78,0,0-10.81-37.92-10.81-37.92-1.1-3.85-8.85.4-9.44-6.36-.21-2.35,1.09-4.58,2.62-6.37,1.98-2.32,4.51-4.28,7.47-5.02,7.76-1.93,8.6,3.98,10.18,9.54l4.95,17.38c2.4,8.43,4.8,16.85,7.2,25.28.68,2.39,1.68,2.88,5.46,2.23l.95,3.35-21.11,6.02Z"/>
    <path class="cls-6" d="m199.42,128.41c-6.74.82-11.57-2.43-12.25-8.02-1.19-9.79,10.74-14.58,22.24-18.16l-.47-3.87c-.62-5.1-1.58-6.82-5.2-6.38-3.13.38-4.65,2.24-5.41,6.25-.73,3.6-2.85,5.36-5.81,5.72-2.71.33-4.89-1.07-5.31-4.53-.74-6.09,6.49-11.14,17.26-12.46,8.39-1.02,16.09,1.21,17.22,10.42.33,2.73.97,23.06,4.99,21.72,1.75-.59.72-4.07,2.98-5.11,1.16-.53,2.66-.28,3.5.69.35.4.57.9.7,1.42,1.49,5.73-8.51,9.05-12.64,9.55-4.28.52-7.8-.3-9.18-4.06-3.13,3.05-7.51,6.18-12.61,6.8Zm10.58-21.41c-6.5,2.13-10.7,4.65-10.15,9.17.37,3.04,2.6,4.19,5.07,3.89,2.47-.3,4.49-1.55,6.29-3.19l-1.2-9.87Z"/>
    <path class="cls-6" d="m256.71,124.37l-21.94-.84.13-3.48c3.74-.27,4.68-.98,4.78-3.46l.76-19.62c.07-1.74-.48-2.51-1.97-2.56l-2.57-.1.12-3.23,12.93-6.47,4.64.18-.16,4.06c3.39-2.03,8.35-3.74,12.57-3.58,6.13.24,13,2.66,12.58,13.42-.26,6.77-1.68,14.39-1.27,21.02.05.77.44,1.57,1.14,1.89.74.33,1.65.06,2.4.36,1.09.43,1.44,1.84,1.29,3-.4,3.16-3.4,5.65-6.58,5.89s-6.32-1.5-8.2-4.08c-4.94-6.75-1.74-20.86-1.43-28.9.15-3.97-2.1-5.63-5.17-5.75-2.73-.11-5.17.71-7.55,2.2l-.88,22.76c-.1,2.48.7,3.26,4.5,3.82l-.13,3.48Z"/>
    <path class="cls-6" d="m303.84,107.51c-.2.72-.32,1.46-.43,2.11-.65,4.03-1.18,9.19,1.38,12.72,2.33,3.22,8.14,5.04,11.59,2.67,1.53-1.05,2.49-2.87,2.51-4.72,0-.61-.09-1.23.06-1.81.45-1.79,2.68-2.35,4.51-2.59,2.85-.36,6.65.38,6.35,4.15-.19,2.4-3.45,5.21-5.14,6.72-4.47,4-10.08,5.34-15.97,4.38-13.49-2.2-20.13-11.93-18.22-23.63,1.9-11.61,11.45-18.7,23.47-16.74,11.78,1.92,17.11,9.85,15.31,20.89l-25.43-4.15Zm14.43-3.02c.79-4.82-1.18-8.17-4.86-8.77-4.5-.73-6.89,1.56-8.46,6.59l13.33,2.18Z"/>
    <path class="cls-6" d="m356.55,140.68c-3.11.09-6.45-.63-9.19-1.34-7.61-1.99-11.67-5.79-9.49-14.13l5.77-22.04-4.41-1.15.82-3.13c7.38-.72,12.34-4.31,15.87-10.92l4.57,1.2-3.17,12.1,8.82,2.31-1.34,5.13s-8.82-2.31-8.82-2.31l-3.01,11.51c-.78,2.97-4.8,12.06-1.28,14.12,1.23.72,2.84.62,4.08-.09,1.2-.69,2.06-1.88,3.29-2.54,1.72-.92,4.05-.53,5.38.91,1.35,1.46,1.55,3.77.76,5.59s-2.44,3.19-4.28,3.94c-1.33.55-2.82.8-4.36.84Z"/>
  </g>
  <path class="cls-7" d="m144.22,353.1c-5.04,7.32-13.84,9.03-21.98,3.42-8.14-5.61-9.67-14.44-4.63-21.76,5.01-7.27,13.81-8.98,21.94-3.37,8.14,5.61,9.67,14.44,4.67,21.71Zm-8.09-5.57c4.16-6.04,5.24-10.35,1.3-13.06s-7.58-.17-11.74,5.87c-4.16,6.04-5.28,10.4-1.34,13.12,3.94,2.72,7.62.12,11.78-5.92Z"/>
  <path class="cls-7" d="m159.8,375.9l-15.14-6.48,1.03-2.4c2.69.82,3.54.57,4.28-1.14l5.8-13.54c.51-1.2.33-1.88-.69-2.33l-1.77-.76.95-2.23,10.8-1.06,3.2,1.37-1.2,2.8c2.92-.51,6.85-.38,9.77.87,4.23,1.81,8.39,5.35,5.21,12.78-2.85,6.65-7.28,13.9-8.8,20.91-.16.74-.26,1.57.17,2.2.23.33.59.56.88.85,1.49,1.47.7,4.23-1.06,5.37-3.43,2.21-9.64.92-10.39-3.48-1.09-6.38,3.44-13.01,5.76-18.6,1.56-3.75,3.2-7.47,4.8-11.21,1.17-2.74.04-4.51-2.07-5.42-1.89-.81-3.81-.89-5.88-.49l-6.73,15.71c-.73,1.71-.38,2.47,2.12,3.88l-1.03,2.4Z"/>
  <path class="cls-7" d="m207.6,392.91c-4.95-1.19-7.48-4.74-6.49-8.85,1.73-7.19,11.37-7.42,20.39-6.9l.68-2.84c.9-3.74.68-5.2-1.98-5.85-2.29-.55-3.85.35-5.44,2.97-1.46,2.33-3.41,3.01-5.58,2.49-1.99-.48-3.15-2.04-2.54-4.57,1.08-4.47,7.48-6.12,15.39-4.21,6.16,1.48,10.98,5.08,9.35,11.84-.47,1.93-4.71,16.46-1.79,15.99.51-.08.89-.5,1.3-.83.75-.6,1.77-.91,2.7-.68s1.74,1.04,1.82,2c.1,1.14-.81,2.17-1.87,2.6-2.87,1.17-6.94,1.36-9.93.64-3.14-.76-5.4-2.26-5.38-5.26-3,1.32-6.9,2.36-10.64,1.46Zm13.05-12.25c-5.12-.21-8.74.45-9.54,3.77-.54,2.24.72,3.63,2.54,4.06,1.81.44,3.56.09,5.25-.59l1.75-7.25Z"/>
  <g>
    <path class="cls-6" d="m261.11,442.69c.62.8,1.62,1.32,2.62,1.4,2.26.18,4.05-2.47,5.49-3.97,2.78-2.89,5.56-5.78,8.34-8.67,4.42-4.59,8.84-9.18,13.26-13.77,1.21-1.25,1.31-2.19.23-3.23l-1.91-1.84,2.24-2.33,14.02,3.84,3.34,3.22-2.64,2.74c3.64.17,7.18,1.62,10.4,4.73,7.46,7.18,7.14,17.91-1.43,26.8-8.62,8.95-19.33,9.68-27.98,1.35-2.69-2.59-4.2-5.31-4.78-8.17-2.06,2.14-4.08,4.34-6.19,6.43-3.21,3.18-6.93,7.37-11.05,9.33-5.22,2.48-12.08.29-15.18-4.58-3.1-4.88-2.31-11.77,1.57-16.05,1.16-1.28,2.64-2.39,4.36-2.63s3.66.58,4.28,2.2c.29.75.28,1.58.54,2.34.11.31.27.6.46.86Zm25.86-2.72c-.48,2.64.33,5.03,2.42,7.04,4.42,4.25,9.48,2.57,16.26-4.47s8.15-12.05,3.74-16.3c-2.09-2.01-4.45-2.79-7.13-2.15l-15.29,15.88Z"/>
    <path class="cls-6" d="m306.78,471.07l2.15-2.74c3.19,1.98,4.37,1.95,5.9,0,4.59-5.86,9.18-11.71,13.77-17.57,2.8-3.57,5.62-7.12,8.39-10.71,1.16-1.5,3.13-3.15,2.78-5-.38-2-5.17-1.95-3.42-5.86.77-1.72,2.67-2.72,4.55-2.93s3.76.24,5.6.68c2.51.6,5.08,1.23,7.25,2.63,6.81,4.37.36,9.21-3.04,13.54l-10.86,13.86c-5.01,6.4-10.03,12.79-15.04,19.19-1.53,1.96-1.34,3.05,1.4,5.73l-2.15,2.74-17.28-13.55Z"/>
    <path class="cls-6" d="m344.01,498.58c-6.18-2.84-8.57-8.13-6.22-13.25,4.11-8.96,16.79-6.78,28.46-3.8l1.62-3.54c2.14-4.67,2.23-6.64-1.09-8.16-2.86-1.31-5.13-.53-7.89,2.49-2.51,2.68-5.24,3.07-7.95,1.82-2.48-1.14-3.6-3.48-2.15-6.64,2.56-5.57,11.37-6.08,21.23-1.56,7.68,3.53,13.07,9.47,9.19,17.9-1.99,4.34-5.02,8.14-6.82,12.58-.67,1.64-2.28,4.9-1.59,6.74,1.37,3.64,2.38.64,5.22-.54,1.79-.75,4.43-.1,4.7,1.82.2,1.42-.97,2.62-2.04,3.57-5.31,4.71-22.23.53-20.37-8.61-4.27.96-9.63,1.32-14.3-.82Zm20.23-12.68c-6.65-1.6-11.55-1.66-13.45,2.48-1.28,2.79.02,4.93,2.28,5.97,2.26,1.04,4.63,1.03,7.03.58l4.15-9.03Z"/>
    <path class="cls-6" d="m411.14,526.48c-3.18.52-6.84.4-9.24.09-7.8-1.03-12.3-4.31-11.16-12.85l3-22.58-4.52-.6.43-3.2c7.24-1.63,11.72-5.8,14.4-12.8l4.68.62-1.65,12.4,9.03,1.2-.7,5.26s-9.03-1.2-9.03-1.2c-.59,4.43-5.74,23.97-1.26,26.02,1.35.62,3.01.33,4.24-.51,1.11-.76,1.93-1.94,3.15-2.52,2.21-1.04,5.09.51,5.78,2.85s-.56,4.98-2.62,6.3c-1.16.75-2.78,1.23-4.54,1.51Z"/>
    <path class="cls-6" d="m440.91,502.93c.11.74.3,1.46.47,2.1,1.03,3.9,2.6,8.64,6.21,10.91,2.94,1.86,9.48,2.03,11.29-1.44.75-1.44.76-3.17.48-4.77-.16-.92-.42-1.84-.26-2.76.14-.81.6-1.54,1.12-2.18,1.38-1.66,3.47-2.88,5.62-2.7,6.49.56,2.84,8.58.95,11.86-2.58,4.48-6.88,7.26-11.82,8.56-13.22,3.48-23.24-2.7-26.26-14.16-3-11.38,2.84-21.74,14.62-24.84,11.54-3.04,19.64,2.03,22.49,12.84l-24.92,6.56Zm11.95-8.63c-1.24-4.73-4.41-6.98-8.01-6.03-4.41,1.16-5.66,4.23-5.05,9.47l13.06-3.44Z"/>
  </g>
</svg>